<svg xmlns="http://www.w3.org/2000/svg" viewBox="0 0 89.30708 87.19307"><title>Asset 2</title><g id="Layer_2" data-name="Layer 2"><g id="Objects"><path d="M71.11,67.22024a.82049.82049,0,0,0,.7683.0294c13.5074-6.2892,19.1641-24.1212,16.9682-38.0603C86.24753,12.694,73.27833,3.55734,57.62873.862c-15.98579-2.7527-33.51479,1.0321-45.6665,12.1472-11.82629,10.8172-15.8671,27.8696-7.6307,42.0533,9.1243,15.7135,27.981,21.8161,44.9063,16.1189l.0118-.0068c6.3541,10.5229,17.3408,14.4033,29.0614,16.0077a.83482.83482,0,0,0,.63991-1.5175A19.80634,19.80634,0,0,1,71.11,67.22024Zm-20.6482,2.7689a.76186.76186,0,0,0-.996-.3219.70492.70492,0,0,0-.6692-.0872c-18.4702,6.2176-40.3972-2.7169-46.0904-22.2938-5.926-20.3777,10.6172-37.9128,28.9833-43.3762,16.2507-4.8345,39.8601-2.8531,50.2833,12.2749,10.2443,14.8682,6.4426,41.4756-10.8692,49.5985-.34969-.5845-1.351-.6892-1.4848.1368a21.43349,21.43349,0,0,0,6.1973,19.2006C65.54283,83.34314,56.04423,79.52464,50.46183,69.98914Z"/></g></g></svg>