<svg xmlns="http://www.w3.org/2000/svg" viewBox="0 0 170.64309 162.25479"><title>Asset 27</title><g id="Layer_2" data-name="Layer 2"><g id="Objects"><path d="M121.76181,29.38947a12.73587,12.73587,0,0,0-17.9273-10.5405,10.96714,10.96714,0,0,0-4.8977-11.0156A10.612,10.612,0,0,0,86.9,8.897c-3.4881-17.4304-35.0644-6.8912-32.612,11.331-10.4057-5.0189-21.5354,8.2439-12.1993,16.8999,5.8665,5.4396,16.20971,4.2646,23.4384,4.3885q18.98925.32535,37.9807.1247a.77831.77831,0,0,0,.14461-.0307C112.40842,42.74077,122.87051,40.43127,121.76181,29.38947Zm-18.7101,10.479a.83458.83458,0,0,0-.5774.1155q-18.4737.1668-36.9472-.1284c-5.6658-.0976-12.3043.4717-17.7219-1.3993-13.9104-4.804-4.7084-23.8317,7.1446-15.9523.6699.4453,1.3054-.2537,1.2058-.8794a.86287.86287,0,0,0-.0105-.3544c-4.0953-17.6107,27.50731-27.8985,29.3022-10.8753-.4077.7608.5318,1.6737,1.1828,1.0737a.66207.66207,0,0,0,.4922-.5075c6.5872-6.9523,17.2997.1075,14.7787,9.0281a.84487.84487,0,0,0-.0567.9844.708.708,0,0,0,.13211.1595.81693.81693,0,0,0,.07769.079c.025.0179.0527.0294.07931.045a.70036.70036,0,0,0,.20069.0925.837.837,0,0,0,.9318-.3047,11.03057,11.03057,0,0,1,16.7313,7.603C121.88881,39.31377,111.08881,41.17387,103.05171,39.86847Z"/><path d="M30.08161,108.97057a.82207.82207,0,0,0-.9608-.7844.78691.78691,0,0,0-.6993-.4713,179.39,179.39,0,0,0-26.96609.6588c-.02131.002-.03511.0135-.05541.0169a.83965.83965,0,0,0-1.4.5993q.12105,25.44915,1.7098,50.8488a.81574.81574,0,0,0,.701.7693.8894.8894,0,0,0,.7419,1.2054,129.58641,129.58641,0,0,0,26.2945-.5017.84885.84885,0,0,0,.1936-.0635.82521.82521,0,0,0,1.2118-.7115Q31.03306,134.74537,30.08161,108.97057Zm-.8885,50.708a129.60648,129.60648,0,0,1-25.8688.4861.805.805,0,0,0,.0459-.326q-1.55669-24.88725-1.6972-49.8221a179.41616,179.41616,0,0,1,26.7485-.6412c.0047.0003.0078-.0021.0122-.0017Q29.35351,134.51772,29.19311,159.67857Z"/><path d="M20.12091,110.671q-3.8088.309-7.6169.6182c-1.0578.0858-1.0669,1.7473,0,1.6605q3.8082-.30915,7.6169-.6183C21.17861,112.24527,21.18781,110.58407,20.12091,110.671Z"/><path d="M18.50971,152.58837a2.99305,2.99305,0,0,0-3.6402.3064.76034.76034,0,0,0-.1865.0297,2.71671,2.71671,0,0,0-1.2391,3.9666c.9702,1.6547,3.2081,1.5604,4.59451.526C19.51751,156.31407,20.32631,153.79887,18.50971,152.58837Zm-1.4821,3.5182c-.581.424-1.6047.6953-2.1074.0102a1.40372,1.40372,0,0,1-.2159-.7342.84979.84979,0,0,0,.2808-.2618c.4841-.7132,1.3064-1.6,2.2729-1.3054C18.47221,154.18567,17.71581,155.60387,17.02761,156.10657Z"/><path d="M25.04181,117.28037a.851.851,0,0,0-.8142-.7828c.70681-.3925.6091-1.6682-.3257-1.553q-9.4824,1.171-19.011,1.8466a.80054.80054,0,0,0-.6463.3916.79157.79157,0,0,0-.7983.7942,175.22155,175.22155,0,0,0,2.1652,30.7053.64787.64787,0,0,0,.581.5872.88.88,0,0,0,1.01491.7348,164.46053,164.46053,0,0,1,18.48639-2.1041.84485.84485,0,0,0,.8304-.8304Q26.29921,132.14537,25.04181,117.28037Zm-.2689,24.8182c-.4162,4.9158-2.8189,4.3081-7.2959,4.7824-3.4423.3642-6.8561.8726-10.2679,1.452a.81853.81853,0,0,0,.0037-.0919,172.64541,172.64541,0,0,1-2.1095-29.8073q9.3117-.66585,18.575-1.8037a.66866.66866,0,0,0-.297.6503C24.05942,125.3,25.454,134.06137,24.77291,142.09857Z"/><path d="M169.84342,108.97057a.82219.82219,0,0,0-.96082-.7844.78706.78706,0,0,0-.6994-.4713,179.39014,179.39014,0,0,0-26.96609.6588c-.0213.002-.0351.0135-.0554.0169a.83966.83966,0,0,0-1.4.5993q.12107,25.44915,1.7098,50.8488a.81582.81582,0,0,0,.701.7693.8894.8894,0,0,0,.74191,1.2054,129.5862,129.5862,0,0,0,26.29448-.5017.84724.84724,0,0,0,.1936-.0635.82521.82521,0,0,0,1.2118-.7115Q170.79475,134.74537,169.84342,108.97057Zm-.88852,50.708a129.6075,129.6075,0,0,1-25.86889.4861.80666.80666,0,0,0,.046-.326q-1.55685-24.88725-1.6973-49.8221a179.41638,179.41638,0,0,1,26.74849-.6412c.0048.0003.0078-.0021.01222-.0017Q169.11519,134.51772,168.9549,159.67857Z"/><path d="M159.88261,110.671q-3.80879.309-7.6169.6182c-1.0577.0858-1.0669,1.7473,0,1.6605q3.80835-.30915,7.6169-.6183C160.94042,112.24527,160.94951,110.58407,159.88261,110.671Z"/><path d="M158.27142,152.58837a2.99292,2.99292,0,0,0-3.64011.3064.75894.75894,0,0,0-.1865.0297,2.71668,2.71668,0,0,0-1.2392,3.9666c.9702,1.6547,3.2081,1.5604,4.5946.526C159.27921,156.31407,160.088,153.79887,158.27142,152.58837Zm-1.482,3.5182c-.58111.424-1.60481.6953-2.10751.0102a1.40464,1.40464,0,0,1-.2159-.7342.84874.84874,0,0,0,.2808-.2618c.4841-.7132,1.3064-1.6,2.273-1.3054C158.23391,154.18567,157.47751,155.60387,156.78942,156.10657Z"/><path d="M164.80351,117.28037a.851.851,0,0,0-.8142-.7828c.7068-.3925.60911-1.6682-.3256-1.553q-9.4824,1.171-19.0111,1.8466a.80069.80069,0,0,0-.6463.3916.79163.79163,0,0,0-.7983.7942,175.22155,175.22155,0,0,0,2.1652,30.7053.64788.64788,0,0,0,.5811.5872.87986.87986,0,0,0,1.0148.7348,164.46361,164.46361,0,0,1,18.4864-2.1041.84485.84485,0,0,0,.8304-.8304Q166.06091,132.14537,164.80351,117.28037Zm-.2689,24.8182c-.41619,4.9158-2.8189,4.3081-7.2959,4.7824-3.4422.3642-6.8561.8726-10.2679,1.452a.82091.82091,0,0,0,.0037-.0919,172.64533,172.64533,0,0,1-2.1094-29.8073q9.31155-.66585,18.5749-1.8037a.66866.66866,0,0,0-.297.6503C163.82111,125.3,165.21571,134.06137,164.53461,142.09857Z"/><path d="M50.06471,46.94077q-7.7133,17.97045-16.1439,35.61l-2.6446-1.276a.84065.84065,0,0,0-1.2199.4962,33.13085,33.13085,0,0,0-.5652,8.5534.85212.85212,0,0,0,.0794,1.2078c.0068.0696.0064.1354.0135.2057a.9462.9462,0,0,0,1.077.8115.83066.83066,0,0,0,1.0821-.0493,58.74842,58.74842,0,0,1,5.2449-4.4473c.85141-.4004,1.7132-.7885,2.6027-1.1524.5875-.2402.9132-1.1726.1983-1.5175l-4.3773-2.1125q8.38935-17.587,16.0868-35.4915C51.91542,46.80757,50.48531,45.96067,50.06471,46.94077Z"/><path d="M148.64431,90.80927q-9.6843-16.98975-18.67189-34.3519l2.61259-1.3402a.84075.84075,0,0,0,.3398-1.2725,33.12979,33.12979,0,0,0-6.48239-5.6087.85218.85218,0,0,0-1.01141-.665c-.05959-.0365-.1119-.0765-.1722-.1133a.94617.94617,0,0,0-1.2968.3699.83061.83061,0,0,0-.6132.8929,58.74637,58.74637,0,0,1,.3849,6.8658c-.194.9206-.4041,1.8422-.6502,2.7712-.1627.6135.3847,1.4355,1.091,1.0733l4.3248-2.2181q8.9706,17.2977,18.6117,34.235C147.63451,92.36587,149.17251,91.73587,148.64431,90.80927Z"/><path d="M55.66931,130.63577q19.48635-1.6479,39.01811-2.5072l.11819,2.9339a.84065.84065,0,0,0,1.01181.843,33.12811,33.12811,0,0,0,7.81359-3.5252.852.852,0,0,0,1.02841-.6383c.05829-.0387.11659-.0694.17519-.1087a.9461.9461,0,0,0,.2094-1.3321.8307.8307,0,0,0-.55259-.9317,58.73989,58.73989,0,0,1-6.39191-2.536c-.7538-.5629-1.5018-1.1408-2.2413-1.7545-.4884-.4055-1.4644-.2542-1.4324.5389l.1952,4.8565q-19.466.87105-38.88659,2.5019C54.68121,129.06527,54.60661,130.72567,55.66931,130.63577Z"/></g></g></svg>