<svg xmlns="http://www.w3.org/2000/svg" viewBox="0 0 107.36455 114.00385"><title>Asset 9</title><g id="Layer_2" data-name="Layer 2"><g id="Objects"><path d="M99.62515,5.14539c-12.05508-10.1756-28.156-3.5817-38.7175,5.2993-16.5878,13.9493-31.05358,31.3847-44.8789,47.9955a.84143.84143,0,0,0-.078.9875.72065.72065,0,0,0-.1848.3206,46.09064,46.09064,0,0,0-1.3014,10.9567.7904.7904,0,0,0,.0379.1848q-6.20175,7.4235-13.0689,14.253a.83413.83413,0,0,0-.301-.0517.88883.88883,0,0,0-1.0517,1.2111,13.72624,13.72624,0,0,1,1.1784,5.1602.82291.82291,0,0,0,.1101.3837.75523.75523,0,0,0,.223.4581q10.85865,10.73055,21.7168,21.4615a.83945.83945,0,0,0,1.3878-.3666c.0358-.1155.05712-.2226.0902-.3361a.78747.78747,0,0,0,.7963-.1693,112.01186,112.01186,0,0,0,15.8679-17.5435.97164.97164,0,0,0,.6824-.4527c1.3044,1.2351,2.6301,2.4439,3.9942,3.6135a.83769.83769,0,0,0,.9288.1385.79091.79091,0,0,0,1.2152.103c13.1854-13.1111,26.46712-26.133,39.5529-39.3434,9.7077-9.8007,18.6634-20.7385,19.3888-35.0019A21.87261,21.87261,0,0,0,99.62515,5.14539Zm-48.4228,16.882c11.2388-11.3908,28.8951-28.2553,45.8235-16.7925,9.9675,6.75,10.8864,20.1594,4.1124,29.3966-4.8709,6.6422-11.2104,12.4445-16.9567,18.331q-17.49972,17.928-36.02248,34.8066a.8288.8288,0,0,0-.628-.1952Q32.96334,72.93314,17.79835,58.91349,33.751,39.80124,51.20235,22.02739Zm-27.7489,89.5457q-10.2765-10.1553-20.5523-20.3104a15.8226,15.8226,0,0,0-.4963-3.2358,201.62508,201.62508,0,0,1,20.9638,19.8682.76049.76049,0,0,0,.35942.2263A13.99472,13.99472,0,0,1,23.45345,111.57309Zm1.0165-5.0314c-.0203.0176-.0257.0382-.0436.0564a201.61133,201.61133,0,0,0-21.6709-20.4323,208.7019,208.7019,0,0,0,16.4692-18.4696,231.73291,231.73291,0,0,0,20.8696,19.2685.7956.7956,0,0,0,.451.173.75486.75486,0,0,0-.1936.499A75.30839,75.30839,0,0,1,24.47,106.54169Zm16.48812-12.5283c0,.051-.43832.0986-.49312.175A110.23983,110.23983,0,0,1,25.413,110.913a15.36579,15.36579,0,0,0,.04712-3.0419,2.67035,2.67035,0,0,0,.52768-.1554,76.28828,76.28828,0,0,0,14.97032-16.8908ZM46.03475,96.19c-1.0216-.904-1.6762-1.8033-2.664-2.7456-.247-.2358-.41268-.2631-.41268-.1851V88.113c0-.2162-.21332-.4253-.08872-.6429.3896-.68-.5642-1.304-1.1568-1.2287a.87552.87552,0,0,0-.3512-.4506,232.34992,232.34992,0,0,1-21.57128-19.9361.81894.81894,0,0,0-1.33572.2459.7781.7781,0,0,0-.13328.1024c-.69792.8865-1.42642,1.7506-2.13782,2.625a44.24983,44.24983,0,0,1,1.0812-8.146q14.9868,13.8786,29.3897,28.3611Q46.345,92.61624,46.03475,96.19Zm35.0398-32.3968Q64.34745,80.42594,47.61985,97.059q.3102-3.57975.6193-7.1591a.80018.80018,0,0,0,.1692-.1017Q72.6035,67.73349,95.137,43.949c3.0882-3.2689,6.2973-6.5351,8.6544-10.2743C99.82845,45.60609,90.032,54.88649,81.07455,63.79319Z"/><path d="M19.83345,83.99619a65.902,65.902,0,0,0-5.6689-5.2632.8475.8475,0,0,0-1.304.1679q-.93345,1.34145-1.9169,2.6453a.64007.64007,0,0,0-.0777.7165.7036.7036,0,0,0-.0223,1.1335l4.9142,4.0655a.89741.89741,0,0,0,1.3919-.3683.72861.72861,0,0,0,.39932-.2331,6.12574,6.12574,0,0,1,2.11618-1.5601A.8375.8375,0,0,0,19.83345,83.99619Zm-3.4587,1.6898a.84322.84322,0,0,0-.0551.0946l-4.02058-3.326a.78945.78945,0,0,0,.07838-.0703c.4574-.6064.89562-1.226,1.3365-1.8439q2.16435,1.83855,4.1604,3.8571A7.24159,7.24159,0,0,0,16.37475,85.686Z"/><path d="M30.79225,93.73529a59.3152,59.3152,0,0,1-4.999-4.2439.85333.85333,0,0,0-1.1743,0q-1.19955,1.01715-2.3987,2.0341a.71629.71629,0,0,0-.2378.3828.83144.83144,0,0,0-.1713,1.2686,27.34363,27.34363,0,0,0,4.8054,4.13.72369.72369,0,0,0,1.08552-.278.65145.65145,0,0,0,.68988-.0902q1.20045-.88485,2.4003-1.7696A.84607.84607,0,0,0,30.79225,93.73529Zm-3.2385,1.7696a.88759.88759,0,0,0-.2379.2618,25.38728,25.38728,0,0,1-3.7574-3.206q.81585-.69225,1.6324-1.3845,1.84815,1.7037,3.8291,3.2476Q28.2872,94.96454,27.55375,95.50489Z"/></g></g></svg>