<svg xmlns="http://www.w3.org/2000/svg" viewBox="0 0 78.49293 108.26806"><title>Asset 16</title><g id="Layer_2" data-name="Layer 2"><g id="Objects"><path d="M78.17252.82422A.84015.84015,0,0,0,76.75493.237a316.05151,316.05151,0,0,1-32.08771,28.0786.84348.84348,0,0,0,0,1.4338c1.85071,1.1585,7.6652,3.5155,8.6263,5.4,1.4541,2.851-.6993,4.9807-1.979,7.3662q-4.797,8.9406-9.5942,17.881c-1.0331,1.9257-2.2162,6.5142-4.8436,6.5378-1.152.0105-5.0392-4.5972-6.08379-5.48A137.80526,137.80526,0,0,0,18.444,52.23282a.84.84,0,0,0-1.2196.4963Q8.638,76.279.05152,99.82962a.66794.66794,0,0,0,.151.7432.81565.81565,0,0,0,.5601.8325,99.89131,99.89131,0,0,1,15.2358,6.7557.84075.84075,0,0,0,1.2196-.4963c1.6824-5.7199,3.4621-11.4067,5.3996-17.0459q1.24515-3.62385,2.5652-7.2216c.3689-1.0047,1.8433-6.578,2.7139-7.1668,4.3597-2.9487,11.4861,8.4523,16.8948,6.4722,2.4919-.9121,3.8953-6.6989,4.9493-8.8466q4.0683-8.28585,8.1368-16.5719,1.74375-3.55125,3.4872-7.1023c.601-1.2247,2.3929-6.327,3.48711-7.1024,2.43959-1.7287,9.49289,2.3673,12.32669,3.1815a.83963.83963,0,0,0,1.051-.8007Q78.78358,23.14067,78.17252.82422Zm-1.5101,40.6982c-1.2473,4.8803-7.7784-.1017-10.9459-1.9463a.83852.83852,0,0,0-1.1362.2976q-6.68355,13.61295-13.3672,27.2256c-2.1429,4.3642-4.4155,13.5212-10.9074,12.7128-3.5402-.4405-8.8259-4.9885-11.853-6.8959a.8421.8421,0,0,0-1.2196.4963c-3.2827,8.3199-6.31619,16.7286-9.01719,25.256-1.54181,4.8672-1.23141,7.907-6.73951,5.2814a98.02756,98.02756,0,0,0-9.7249-3.9497q6.2772-17.21745,12.555-34.435c.8557-2.3473,1.4581-5.2547,2.7115-7.4368,2.3115-4.0243,2.627-3.201,6.34791-.451a132.62357,132.62357,0,0,1,14.00669,12.0699.83851.83851,0,0,0,1.3041-.1679q8.9544-16.689,17.9094-33.378a.84874.84874,0,0,0-.298-1.1361c-2.2108-1.3838-9.1037-4.151-8.69219-6.9098.275-1.8432,8.29359-6.599,9.91959-7.9608C64.11752,14.666,70.435,8.82312,76.55093,2.765c.21649,8.5412.33209,17.0841.28719,25.6287C76.81712,32.39972,77.64952,37.65952,76.66242,41.52242Z"/></g></g></svg>