<svg xmlns="http://www.w3.org/2000/svg" viewBox="0 0 146.60528 114.70273"><title>Asset 13</title><g id="Layer_2" data-name="Layer 2"><g id="Objects"><path d="M146.299,97.32565c.227-5.2105.3108-10.4226.3061-15.6378a.83969.83969,0,0,0-.83039-.8301c-1.9189.0777-3.8176.2206-5.7094.4044-.00069-.0344.00331-.0703.002-.104-.15-3.2203-1.0378-6.5777-1.5412-9.7635a.64548.64548,0,0,0-.4406-.549.7537.7537,0,0,0-.6344-.3054c-19.8824.1294-39.2766.2584-59.1597.3875.0277-.0828.54421-.1669.54421-.2696V50.363c0-.025-.50091-.0419-.50231-.0659,2.6662-.0415,5.0887-.1003,7.7536-.2044,14.1249-.5523,39.5932.7598,35.9162-20.5894-2.5548-14.8348-18.4263-21.4625-31.1938-15.2882A13.62765,13.62765,0,0,0,70.1381,1.95975a16.2984,16.2984,0,0,0-5.1914,4.5844c-.4168.5723-1.6595,3.7399-2.1784,3.8473-.873.1814-6.5896-3.6872-8.3301-3.9655a14.4525,14.4525,0,0,0-10.4123,2.2371c-5.9034,4.0848-7.2011,11.9071-4.5302,18.1523-11.0114-5.1185-21.0143,9.3824-10.888,17.5942,5.5358,4.4895,13.6823,4.6585,20.4323,5.1274,9.0391.6277,18.4231.8871,27.4839.7902-.0007.0132.31171.0223.31171.0358v20.2952c0,.1068-.29221.1946-.26241.2797-22.7601.148-45.6801.2956-68.4408.4439-.5189-.2635-1.2945-.0503-1.21679.6744a104.73315,104.73315,0,0,1,.53719,13.5972.74238.74238,0,0,0-.4064.9091l.3775,1.3031a.86087.86087,0,0,0,.1.2047c-1.8311-.2013-3.6619-.4301-5.49229-.7034A.85021.85021,0,0,0,.425,87.701q-.49558,12.79515-.4131,25.5966a.84473.84473,0,0,0,1.0512.8007c4.148-.6355,9.1486.0243,13.16951-.8842,1.421-.3209,1.63509-.2895,2.32429-1.6412.902-1.7716-.1264-5.1476-.1446-7.1557a75.70642,75.70642,0,0,1,1.3601-14.5574.84462.84462,0,0,0-.8007-1.051q-4.1067-.18285-8.1702-.5966a.818.818,0,0,0,.2486-.5676,104.76257,104.76257,0,0,0-.4209-14.6063l34.3127-.223a.72913.72913,0,0,0-.0142.1564,84.259,84.259,0,0,1,.5298,10.6358c-2.4831.1246-4.9831.524-6.5595.527a.78332.78332,0,0,0-.7993.8162.81585.81585,0,0,0-.2257.4929q-1.26075,14.01285-1.2162,28.0712a.84269.84269,0,0,0,.8297.8304c4.6446.0233,10.1987.9162,14.7115-.2108a.83224.83224,0,0,0,.5797-.5797c1.0912-3.9041.3284-8.6686.327-12.7368l-.002-8.0077c-.0007-1.8487.69591-5.1085-.1013-6.7791-.9-1.8858-3.2595-2.4155-5.8831-2.452a84.449,84.449,0,0,0-.5304-10.6074.8183.8183,0,0,0-.0534-.1669l53.5505-.348a.66866.66866,0,0,0-.1237.4967,57.66335,57.66335,0,0,1,.3392,10.6175.76985.76985,0,0,0,.0372.2571q-2.5044-.0984-5.00809-.1963c-.002-.1709-.00411-.3419-.00541-.5128a.8309.8309,0,0,0-1.6608,0l.1574,14.8665c.0365,3.4763-1.0675,9.476.1629,12.7999.5195,1.4044.3425,1.2629,1.7864,1.7521,3.5318,1.1969,9.5669-.0173,13.23651-.0359a.84268.84268,0,0,0,.83039-.83l-.0102-26.6736a.84526.84526,0,0,0-.8297-.8304q-3.5604-.1398-7.1202-.279a.8734.8734,0,0,0,.0838-.3176,57.66146,57.66146,0,0,0-.3386-10.6175.84345.84345,0,0,0-.2574-.5051l37.6181-.2443q.3528,2.2293.70481,4.4585c.06889.4324.35469,3.6733.677,4.7746-2.06961.2358-4.13311.5277-6.20341.8919a.673.673,0,0,0-.5804.8003c-2.2804,2.0835-1.5263,5.2176-1.4513,8.2382q.2463,9.88275.4925,19.7648a.847.847,0,0,0,.8304.8304c3.621.1186,11.8568,2.2983,13.973-1.148C146.98549,108.27425,146.16389,100.42525,146.299,97.32565ZM16.01161,90.41345a76.22225,76.22225,0,0,0-1.175,16.7902c.07909,1.6496.67839,3.1861-.99661,4.3621-.7737.5429-3.73039.001-4.6595.0399a74.3392,74.3392,0,0,0-7.5033.7395q-.0567-11.66085.3716-23.3131Q9.00355,90.05115,16.01161,90.41345Zm28.54519-4.6331c2.3446.1811,4.0277.0967,4.8837,2.4541.4203,1.1561.0014,3.3331.0014,4.5757.0014,4.4003,2.1845,18.0127-2.7108,19.931-1.1899.4665-7.91549.5783-8.9952-.0453-2.39129-1.3804-1.4027-5.4466-1.34529-7.8294.15269-6.3736.54929-12.7324,1.11419-19.0817C39.8419,85.75475,42.2399,85.60135,44.5568,85.78035Zm4.4831-37.9039c-5.5426-.3871-11.5642-.5344-16.6358-3.0645-11.7608-5.8676-4.0878-23.4118,7.91151-15.6591a.80025.80025,0,0,0,1.20879-.7811.77718.77718,0,0,0,.1074-.9381c-7.6621-13.8513,10.53581-26.576,20.9459-14.4686a.83659.83659,0,0,0,1.3871-.3662c1.85681-6.3385,7.6655-11.7523,14.65-10.7351a12.28912,12.28912,0,0,1,10.46681,13.2358.81213.81213,0,0,0-.09121,1.3118c.1716.798,1.44121,1.0497,1.5879.1142.0196-.1253.0256-.251.0418-.3767,13.1257-7.0486,30.4749,1.428,29.9094,17.4027-.5851,16.5556-22.9445,14.4215-34.687,14.8807A338.62278,338.62278,0,0,1,49.0399,47.87645ZM101.1755,85.6c4.3426.1703,4.9919.6372,4.9932,4.9548q.0021,4.4457.0034,8.8911c.0007,2.2054,1.0514,8.1929.0034,10.0027-1.2304,2.1257-5.64589,1.7514-7.84589,1.4362-1.90881-.2734-3.80681-.3051-4.73921-2.6071-.448-1.1054-.03579-3.3676-.0486-4.5743l-.1946-18.4105Zm41.6262,23.9564c-1.6128,1.4186-6.05809,1.5314-8.2918.8459-3.1304-.9604-2.34529-3.9989-2.4189-6.956l-.219-8.7845c-.0587-2.356-1.231-8.7722.8953-10.3989a.84007.84007,0,0,0,.2885-.4223c1.1027-.2338,2.7804-.6865,4.50681-1.0483a.77813.77813,0,0,0,.54659.6155,1.34732,1.34732,0,0,0,1.78041-1.0203,6.79807,6.79807,0,0,1,3.63979.2217c2.43249,1.276,1.38521,5.6915,1.3318,8.0165C144.7619,94.96075,146.01319,106.73235,142.8017,109.55635Z"/></g></g></svg>