<svg xmlns="http://www.w3.org/2000/svg" viewBox="0 0 49.0076 44.66894"><title>Asset 21</title><g id="Layer_2" data-name="Layer 2"><g id="Objects"><path d="M48.46533,18.55589c.0155-9.3114-8.9527-16.1367-17.7418-18.0053a26.32726,26.32726,0,0,0-27.4216,11.6445c-6.304,9.9024-3.1831,20.5939,5.9797,27.3513,9.8716,7.2801,22.8229,6.5341,32.5128-.5497.854-.6243.0263-2.0658-.8379-1.4337-7.8783,5.7594-18.2276,7.4692-27.1404,2.8381-9.6838-5.0317-15.5-15.3087-10.0473-25.7117A24.744,24.744,0,0,1,24.25733,1.66c10.2824-.4209,24.7492,7.0639,22.3526,19.3159a.81039.81039,0,0,0,.0595.4885c-1.5041,4.1486-4.575,8.356-9.5108,6.8966-3.8554-1.1399-3.8831-6.4439-3.3959-11.1213a.69968.69968,0,0,0,.1364-.9861c-.0067-.0102-.0155-.0186-.0223-.0284.2223-1.8588.4879-3.5605.5771-4.7686.0783-1.0658-1.5825-1.0611-1.6602,0-.006.0804-.0175.1733-.0243.2561a.8616.8616,0,0,0-1.4358.5845c-.0149.3848-.0223.7716-.027,1.1584a11.12448,11.12448,0,0,0-10.9115-1.9128c-4.8493,1.8263-8.3858,7.5364-7.0168,12.7097,1.3952,5.2703,7.7675,6.3895,12.2337,4.5186a10.33588,10.33588,0,0,0,6.2986-6.7594c.146,3.9236,1.3683,7.3651,5.5797,8.1226,6.5777,1.1827,10.2406-5.176,11.4933-10.624A.80458.80458,0,0,0,48.46533,18.55589Zm-20.0344,6.3476c-3.4236,3.4727-11.5635,5.1348-13.4513-1.0925-1.2216-4.0304,1.7257-8.6094,5.2236-10.3821,3.8034-1.9277,8.2574-.6635,11.0872,2.2328C31.25463,19.01739,31.00593,22.29139,28.43093,24.90349Z"/></g></g></svg>