<svg xmlns="http://www.w3.org/2000/svg" viewBox="0 0 86.41872 76.11788"><title>Asset 4</title><g id="Layer_2" data-name="Layer 2"><g id="Objects"><path d="M85.9868,30.17442C83.3703,14.51,70.2125,2.95222,54.8008.65432c-15.6723-2.3372-34.2003,1.4334-44.9073,13.7942C.6901,25.07312-2.973,40.59262,2.7101,53.76362a37.51258,37.51258,0,0,0,37.9887,22.1381.8507.8507,0,0,0,.8007-1.0511l-1.9288-14.1725a.839.839,0,0,0-.2374-1.4136c-.2446-.5665-1.0413-.4635-1.3805.0348-12.283,1.6375-23.0188-8.2607-22.8306-20.7127.2047-13.5544,11.4368-23.3527,24.3023-24.9273,11.3428-1.3885,24.43811,3.6963,28.7958,14.9915a19.74325,19.74325,0,0,1-.8162,16.1033c-.91349,1.7277-2.8882,5.3304-5.4686,4.4145-1.46789-.5212-3.98-6.0172-4.8868-7.3885a.83848.83848,0,0,0-1.4337,0q-5.00985,10.455-10.0196,20.9098a.84228.84228,0,0,0,.298,1.1358,165.229,165.229,0,0,0,25.2269,9.6168.84048.84048,0,0,0,.9378-1.2195q-1.7553-3.662-3.5111-7.3237C80.9041,58.221,88.3358,44.23692,85.9868,30.17442ZM67.69061,63.48622a.86649.86649,0,0,0-1.16081.9057.89162.89162,0,0,0,.3446.8473q1.45532,3.036,2.9108,6.0713c-3.6909-1.1051-7.34559-2.3065-10.94959-3.6791-2.46961-.9405-5.447-1.7665-7.68681-3.1746-3.276-2.0588-3.0788-1.9027-1.8929-5.5754a71.08392,71.08392,0,0,1,5.5662-11.6165c1.8614-3.3581.9847-3.1415,3.2361-.9523,1.475,1.4341,2.5426,3.8442,3.6652,5.5412a.83958.83958,0,0,0,1.1358.2979c9.3783-6.7091,10.907-20.0313,4.1402-29.2232-7.8686-10.6888-23.1621-13.631-35.1932-9.1675C20.0357,18.12822,11.6925,29.94,13.7485,42.743a21.9288,21.9288,0,0,0,24.2446,18.2141c.757,3.725,3.006,11.5023.7949,13.4976-1.8848,1.7013-9.9182-.7378-12.0213-1.3865a36.82909,36.82909,0,0,1-20.811-16.529C-3.4453,40.22412,3.556,18.87212,18.8083,8.809c16.4679-10.8652,44.2374-10.202,57.616,5.1341A32.12909,32.12909,0,0,1,67.69061,63.48622Z"/></g></g></svg>