<svg xmlns="http://www.w3.org/2000/svg" viewBox="0 0 179.62503 139.61879"><title>Asset 15</title><g id="Layer_2" data-name="Layer 2"><g id="Objects"><path d="M153.00406,68.96573q-17.19915-.7719-34.3904-.0926.25892-6.79305,1.0649-13.5861c.0544-.4554-.425-.8183-.8304-.8301q-4.03933-.1206-8.0791-.2409l14.0844-31.7168c.4301-.9679-1.0003-1.8138-1.4337-.8381q-7.2168,16.25055-14.4331,32.5019-9.60555-.2868-19.2111-.573a.74433.74433,0,0,0,.02-.0848q.494-17.1252.2854-34.2543a.8307.8307,0,0,0-1.6604,0q.2082,17.1315-.2855,34.2543c-.0007.0139.0061.0227.0061.0362q-10.2771-.3066-20.554-.6129Q58.65811,37.135,49.21627,21.64493c-.55541-.9109-1.99221-.0777-1.43381.8381q9.1743,15.04965,17.8543,30.3874-5.89965-.17625-11.7992-.352a.84236.84236,0,0,0-.8304.8304q-.1374,7.80915.0739,15.6016c-3.2516-.4537-6.4756-.0442-9.7709.0149q-3.03434.0543-6.0695-.0723c-2.3098-.0963-7.2727.124-9.6061-.8976l-.0547-.1162a.84253.84253,0,0,0-1.1358-.298q-.10755.05625-.2149.1122a.83956.83956,0,0,0,0,1.4337c2.5608,1.7706,8.052,1.3,11.0115,1.4264,5.19961.2223,10.7442-.8007,15.883.0784q.2442,8.05335.8419,16.0989a.80482.80482,0,0,0,.3895.6429.73941.73941,0,0,0,.7909.7422q7.01-.2397,14.0195-.4797-7.75575,14.436-15.1154,29.0773c-.4781.9527.954,1.7946,1.4337.8381q7.5801-15.1038,15.5939-29.9809,7.4595-.255,14.9182-.5105.1044,16.4553.2091,32.9114a.87781.87781,0,0,0-.2902,1.0594q.20685.47835.41351.9575c.33959.7851,1.55209.3486,1.54729-.4193q-.10993-17.28285-.2196-34.5658,10.65615-.3648,21.3121-.7294a.78673.78673,0,0,0,.07.1946,265.35062,265.35062,0,0,1,16.1935,31.1537c.4284.9763,1.8594.1324,1.4338-.8379a265.29263,265.29263,0,0,0-15.8544-30.5735q3.1287-.107,6.2578-.2142a.78791.78791,0,0,0,.5794-.2635.77526.77526,0,0,0,1.1223-.7318q-.42375-7.2588-.2169-14.4662,16.2471-.6384,32.4813.0234a.80146.80146,0,0,0,.8598.3314q.66541-.147,1.33-.2936C154.17066,70.38763,153.90916,69.00623,153.00406,68.96573Zm-35.9353,15.8801c-15.3419,0-30.6837.5967-46.0262,1.2444a.76323.76323,0,0,0-.9568-.0138c-4.8263.2027-9.6527.373-14.479.5382-.3743-5.0298-.673-10.1498-.83849-15.191-.13381-4.0618-1.30241-10.2344-.15811-14.1762,1.3358-4.6041,8.5777-2.7676,12.7712-2.6426q8.1264.24225,16.2527.4734c7.9706.2378,16.852-.4471,25.0354.2843.1763.6665,1.1294,1.0387,1.4723.2671l.0547-.1238c1.0926.124,2.1753.2671,3.2341.4549,4.0953.7264,3.8716.5138,3.9905,4.7091.074,2.6172-.4304,5.7296-.53579,8.3549-.20881,5.1956-.09561,9.8211.19229,15.8211Z"/><path d="M69.07156,60.75223c-1.954-1.5247-5.0804-1.7818-5.72429.9493-.69561,2.9507-.07731,6.8142.14059,9.7885.20941,2.8682.5888,5.7135,1.0621,8.5493.1754,1.0513,1.7757.6054,1.601-.4416a87.92631,87.92631,0,0,1-1.10869-10.0003C68.16416,70.13523,74.21146,64.763,69.07156,60.75223Zm-2.3044.6375q5.41425,5.55045-1.4097,6.2553l-.0318-.0726a.74406.74406,0,0,0-.4159-.3534,14.56019,14.56019,0,0,1,.0206-2.7202A2.55142,2.55142,0,0,1,66.76716,61.38973Z"/><path d="M80.51616,79.46973a39.344,39.344,0,0,1-5.2101.454q.21585-9.5802.4321-19.1604a.83076.83076,0,0,0-1.6605,0q-.22605,10.01295-.452,20.0266a.841.841,0,0,0,.8304.8304,42.94194,42.94194,0,0,0,6.5016-.5496C82.01006,80.90283,81.56346,79.30243,80.51616,79.46973Z"/><path d="M94.73976,80.59533q-2.9508-10.1634-5.9013-20.3276c-.2146-.7388-1.4467-.8412-1.6014,0a163.37911,163.37911,0,0,0-2.4375,20.2148c-.0618,1.0676,1.599,1.0642,1.6605,0,.0706-1.225.1608-2.4469.2605-3.6675a22.09263,22.09263,0,0,1,5.2151.3635.75537.75537,0,0,0,.0825-.0007q.56,1.92975,1.1202,3.8591A.83109.83109,0,0,0,94.73976,80.59533Zm-7.8686-5.4435q.5073-5.49675,1.38011-10.9493,1.63078,5.6163,3.26109,11.2334A23.79084,23.79084,0,0,0,86.87116,75.15183Z"/><path d="M106.95866,62.08493q-.90465,7.2705-1.8091,14.5409a138.15466,138.15466,0,0,1-7.0781-15.2861c-.3114-.8004-1.7067-.7909-1.631.2206a171.47323,171.47323,0,0,1,.3797,18.5729c-.0358,1.0689,1.625,1.0675,1.6608,0q.2301-6.83925-.0868-13.6594a140.90268,140.90268,0,0,0,6.53611,13.2459.83806.83806,0,0,0,1.547-.4193q1.07068-8.60775,2.14179-17.2155C108.75056,61.02723,107.08906,61.03663,106.95866,62.08493Z"/><path d="M58.51586,3.20983q-5.88089-.00705-11.7618-.0142c-2.88979-.0037-6.66279-.678-9.4222.2027a.82481.82481,0,0,0-.5798.5801c-.5216,3.1902.36121,7.0844.595,10.2989.0746,1.0284-.0865,2.671.7584,3.3669a.84867.84867,0,0,0,.7946.9067q9.34155.6234,18.6827,1.2463a.84436.84436,0,0,0,.8304-.8304q.4662-7.4634.9328-14.9266A.83915.83915,0,0,0,58.51586,3.20983Zm-1.34859,9.1229a20.079,20.079,0,0,1-.25911,4.1463c-.56189,1.7581-.8122,1.2811-2.4392,1.45-4.5946.477-9.8976-.552-14.604-.9564a.63416.63416,0,0,0-.59969-.6081c-.38141-.0514-.60071-6.8044-.63411-7.2676-.2774-3.8142.548-4.2503,4.2023-4.2459l7.0571.0088c1.4551.0017,6.43171-.625,7.3743.4236C58.33476,6.474,57.27166,10.66013,57.16727,12.33273Z"/><path d="M99.83166.00173q-9.1743.70845-18.3709.8547a.84016.84016,0,0,0-.8007.6095,84.34324,84.34324,0,0,0-1.1844,13.1952.81588.81588,0,0,0-.10139,1.4595,3.257,3.257,0,0,0,1.50029.4874.87923.87923,0,0,0,.9-.4527q8.59307-.3399,17.1861-.6804a.851.851,0,0,0,.8304-.83q.43532-6.9066.871-13.8128A.83429.83429,0,0,0,99.83166.00173Zm-14.5395,2.4371c4.5574-.1229,9.10711-.379,13.653-.7179q-.38205,6.0624-.7642,12.1247-8.3589.3303-16.7175.6614a.97844.97844,0,0,0-.3189-.454c.02671-1.8568.0892-3.7105.2479-5.5628C81.704,4.85673,81.24727,2.54833,85.29216,2.43883Z"/><path d="M141.33556,1.69093a.84616.84616,0,0,0-.8301-.8304c-4.2875-.0075-8.56719.1412-12.8378.5321-2.0598.1888-7.23339-.0534-8.8003,1.2422-.977.8074-.8003,1.7757-.85709,3.0824-.12671,2.9108-1.17331,7.5713-.15981,10.2996a.84165.84165,0,0,0,1.1936.5037.77685.77685,0,0,0,.7976.8021q9.8331-.01725,19.6659-.0352a.844.844,0,0,0,.8003-1.051C139.56736,11.33813,141.62576,6.604,141.33556,1.69093Zm-2.1764,6.4526a28.60607,28.60607,0,0,0-.5763,7.4852q-9.371.01665-18.7412.0334a.803.803,0,0,0-.1821.0375.56544.56544,0,0,0-.031-.2203l-.0578-.1442a.84449.84449,0,0,0-.2723-.3524c-.3466-1.7767.1963-4.4098.2557-6.05.0372-1.0256-.3652-4.0361.3612-4.9354.854-1.0575,6.14491-.798,7.7523-.9443q2.801-.2544,5.6098-.3858c1.1007-.0527,4.7679-.7648,5.6213-.149C140.60786,3.75233,139.47676,6.27773,139.15916,8.14353Z"/><path d="M21.21806,59.64143q-9.98865-.24885-19.955.356a.856.856,0,0,0-.8304.8301,103.08425,103.08425,0,0,0-.35439,13.4547.74029.74029,0,0,0,.024.0986.80435.80435,0,0,0,.725,1.1673,151.6831,151.6831,0,0,1,19.96809.9233.83913.83913,0,0,0,.8304-.8301q.21135-7.585.4223-15.1699A.84232.84232,0,0,0,21.21806,59.64143ZM1.73,73.88463a103.039,103.039,0,0,1,.30331-12.2655q9.16214-.525,18.33169-.3294-.1875,6.7221-.3743,13.4442A151.70315,151.70315,0,0,0,1.73,73.88463Z"/><path d="M178.798,61.167a.84665.84665,0,0,0-1.051-.8006,100.37989,100.37989,0,0,1-19.8635.7932.74673.74673,0,0,0-.7719.9517c-.0011.0132-.0078.0223-.0085.0358l-.454,15.8928a.83881.83881,0,0,0,.83.8301q5.8536-.1206,11.7071-.2415c2.9588-.0609,6.7277.5165,9.5337-.4602a.83042.83042,0,0,0,.5798-.5797C180.18606,72.50693,179.00266,66.32383,178.798,61.167Zm-1.1625,12.5429c-.5068,3.1767-1.4953,3.1148-4.5473,3.1777l-5.4632.1125q-2.73135.0567-5.4631.1128c-2.8629.0591-3.377.5855-3.7615-2.2517-.5128-3.781.1557-8.1307.3311-12.0131a102.47393,102.47393,0,0,0,18.4614-.7645C177.43676,65.81193,178.20366,70.145,177.63546,73.70993Z"/><path d="M61.36246,122.21313c-.2199-.9409-.1868-1.7456-1.2003-2.2273-2.0351-.9669-6.64689.5094-8.7787.706-3.5807.3298-7.1669.5858-10.7564.7956a.78953.78953,0,0,0-.6645.4149.80811.80811,0,0,0-.7415.7794c-.1082,2.2067-.996,11.879,1.7395,13.2283,2.15171,1.0615,6.68-.2544,8.9418-.4162q5.5779-.39975,11.1557-.7993a.84322.84322,0,0,0,.8304-.8304C61.723,130.19553,62.20136,125.79993,61.36246,122.21313Zm-1.2098,9.9865c-.8929,1.6334-3.7743,1.1696-5.4692,1.2908l-7.1716.5139c-3.7395.2679-6.0517.4081-6.49959-3.9628a47.57511,47.57511,0,0,1-.14671-6.9098c4.5358-.2679,9.0652-.6135,13.5851-1.078a15.92553,15.92553,0,0,1,3.0642-.3301q.76575-.0882,1.5311-.177a6.38422,6.38422,0,0,1,.7689,3.1631C60.00066,126.16073,60.80676,131.00433,60.15266,132.19963Z"/><path d="M95.03127,124.34223a.842.842,0,0,0-.83-.8301q-8.45326.4308-16.906.8615a.83412.83412,0,0,0-.79631.8925.82246.82246,0,0,0-1.4362.5345,59.71934,59.71934,0,0,1-.8686,12.0331c-.0841.4817.2159,1.103.8007,1.051q5.18865-.4611,10.378-.9223l5.93041-.527c.94629-.0842,2.60879.1185,3.46389-.3929,1.0013-.5994.9165-.9703.954-2.1831C95.82827,131.40533,95.25766,127.79283,95.03127,124.34223Zm-1.631,10.5584c-.97871,1.1081-2.09971.8743-3.57971,1.0061q-6.92685.61515-13.8541,1.231a61.98452,61.98452,0,0,0,.75681-11.3121.72075.72075,0,0,0,.572.2088q8.06638-.41145,16.13229-.8223.20175,3.07095.4031,6.1419C93.91746,132.67593,94.33976,133.83673,93.40027,134.90063Z"/><path d="M138.24706,122.70773a.84263.84263,0,0,0-.8304-.8304q-9.47895.1986-18.95739.3973a.83076.83076,0,0,0,0,1.6605l13.78709-.2889c1.6757-.0351,3.296-.5777,4.3872.9034.8169,1.1091.202,5.9148.2672,7.3652q.08265,1.8405.1811,3.6804a1.89806,1.89806,0,0,1-2.6541,1.0628,34.70674,34.70674,0,0,1-5.3773.1851c-4.4385.2054-8.86419.5666-13.2837,1.0169a83.29932,83.29932,0,0,0,1.6334-14.4763.83075.83075,0,0,0-1.6605,0,81.11555,81.11555,0,0,1-1.7929,15.18c-.102.475.2308,1.1112.8004,1.0511q11.6067-1.22235,23.2675-1.3497a.83815.83815,0,0,0,.83-.8301Q138.43516,130.075,138.24706,122.70773Z"/></g></g></svg>