<svg xmlns="http://www.w3.org/2000/svg" viewBox="0 0 100.03586 70.84645"><title>Asset 12</title><g id="Layer_2" data-name="Layer 2"><g id="Objects"><path d="M98.936,35.75838c-.4449-8.3999-.5882-17.1614-2.1189-25.4502-.8432-4.5679-2.6736-8.1422-7.4838-9.2226-8.3466-1.8743-18.1958-.7534-26.7188-.75-10.3973.004-20.7942.1854-31.1904.3304C26.66065.73248,10.887-1.31312,3.666,2.69438a.7292.7292,0,0,0-.6723.4202c-2.3868,1.5865-3.5952,3.9831-2.6966,7.5828a.77032.77032,0,0,0,.2102.3662q.7941,19.2237,1.5885,38.4475c.3615,8.7506-.6811,15.9084,9.1756,18.1391,24.6628,5.5807,51.8323,2.5291,76.7481.7243a.85493.85493,0,0,0,.7949-.9054.82221.82221,0,0,0,.4338.1757C104.26,68.99478,99.36443,43.84288,98.936,35.75838Zm-7.6023-31.3225a9.228,9.228,0,0,1,3.8192,6.2017c1.1291,5.6128,1.2649,11.552,1.6541,17.2617.3364,4.9368,2.5057,18.6699.9831,28.228a352.10441,352.10441,0,0,0-28.83848-31.0428l9.62428-8.8628c3.5744-3.2916,7.2061-6.5314,10.728-9.8794A21.68156,21.68156,0,0,0,91.33373,4.43588ZM23.28083,2.44q9.49875-.1323,18.998-.2646c11.7472-.1587,23.4989-.3,35.2455-.0307,4.3972.1003,9.2128-.1014,12.757,1.6736-1.5446,1.0865-4.2202,3.2551-4.102,3.1463q-1.95045,1.79595-3.9013,3.5926-5.36355,4.93935-10.7277,9.879-4.8765,4.49085-9.753,8.981c-1.3662,1.2585-3.1372,3.746-4.8764,4.4906-3.101,1.3283-5.1476-.5744-7.6996-1.9845q-5.16585-2.8545-10.2334-5.8733a.86337.86337,0,0,0-1.3027-.7692Q21.022,15.30368,5.35665,3.77408C10.52283,1.59,19.70113,2.48958,23.28083,2.44ZM3.81065,50.832l-.32732-7.9256L2.11913,9.88418a.77422.77422,0,0,0-.4014-.6642,4.63817,4.63817,0,0,1,2.0412-4.5655Q19.74008,16.42123,36.74365,26.598C28.57,39.22058,16.59,50.14348,6.45123,61.22358,3.97423,57.19008,3.99983,55.41448,3.81065,50.832Zm85.43758,15.1524a.70905.70905,0,0,0-.7821.8415.7211.7211,0,0,0-.4466-.1118c-21.2746,1.5409-42.6955,3.0922-63.9893,1.003-3.3885-.3328-6.7723-.7358-10.1318-1.2919-3.9729-.6581-4.5256-.6513-6.5327-3.7446,10.3128-11.3107,22.4648-22.3475,30.807-35.2363q8.3676,4.96815,16.9658,9.5638a.85791.85791,0,0,0,1.00612-.1297l11.58408-10.6676A352,352,0,0,1,97.382,58.21108C96.22123,63.08058,93.81983,66.39548,89.24823,65.98438Z"/></g></g></svg>