<svg xmlns="http://www.w3.org/2000/svg" viewBox="0 0 41.80477 76.69854"><title>Asset 24</title><g id="Layer_2" data-name="Layer 2"><g id="Objects"><path d="M40.18344,45.72311C37.88613,31.38361,34.32363,7.02761,18.35513.97731,7.95344-2.96389-1.95256,5.66721.33123,15.20531a.7086.7086,0,0,0-.0872.6672c3.5871,10.8041,6.5588,22.105,10.8611,32.6412,1.94631,4.7658,5.303,8.9482,11.0159,8.4344,17.1665-1.5433,7.3249-28.104,4.0942-36.7678a.88952.88952,0,0,0-1.4382-.3172,3.30455,3.30455,0,0,0-3.5814-.6659,2.44708,2.44708,0,0,0-1.06619,3.4655.87648.87648,0,0,0,.24319.2243.79845.79845,0,0,0,.0409.1362c2.81691,5.2588,8.2416,16.131,4.19391,22.0587q-6.788,3.5361-9.11821-1.7047-1.1964-2.12085-2.2561-4.3132a75.42586,75.42586,0,0,1-3.5918-8.8108,80.55273,80.55273,0,0,1-3.6102-16.7459c-.8773-9.256,10.6878-8.0408,15.2095-3.3665a29.8009,29.8009,0,0,1,4.5986,7.0017,90.073,90.073,0,0,1,6.4506,16.1188c2.2973,7.7416,9.39361,33.2202-2.5125,36.6489a.7626.7626,0,0,0-.5766.6919c-8.9034,2.4591-14.2409-9.5787-17.379-16.1135a67.04933,67.04933,0,0,1-4.12429-10.6692c-.58791-2.0699-.64971-4.7966-1.70141-6.6895-1.5054-2.7088-5.5074-3.6797-5.399.1277a.72785.72785,0,0,0-.128.6966c3.5176,11.7953,8.4648,36.7962,24.0253,38.6418a15.33594,15.33594,0,0,0,15.3236-8.1169C43.329,61.52651,41.354,53.02921,40.18344,45.72311Zm-2.25411,22.8412c-4.5202,7.532-14.7607,8.2983-20.9516,2.6307-8.326-7.6219-11.6489-22.6101-14.7496-33.1418a.76516.76516,0,0,0,.04631-.3645q2.87834-.4683,2.73039,2.0398.4485,2.2896,1.0915,4.5325a66.27821,66.27821,0,0,0,2.3007,6.6006,81.50253,81.50253,0,0,0,6.4882,12.6675c3.5273,5.6179,8.41621,11.0703,15.6067,8.3997a.8287.8287,0,0,0,.5496-.7135c7.5003-2.7733,7.0166-11.499,6.4936-18.4229a95.75588,95.75588,0,0,0-7.0871-29.6469c-2.9713-7.1196-7.1135-17.0966-15.7568-18.6145-4.8401-.85-9.1621,1.8764-10.1584,6.2091a.66189.66189,0,0,0-.374.697c.0609.6773.1298,1.3628.2041,2.052.0101.1125.0078.2206.022.3345.0033.0267.0179.0446.0229.0699,1.247,11.1777,4.3517,23.6922,11.1628,32.6492,3.8396,5.0493,11.0862,5.2368,12.3193-1.9811a.88156.88156,0,0,0-.7284-1.0141c2.14491-6.7075-2.40409-15.9297-5.3139-21.3625a.79778.79778,0,0,0-.2496-.2831.67841.67841,0,0,0-.0348-.0773c-.3726-.5136.1003-1.1305.6638-1.2359.8585-.1604,1.6662.6217,2.1821,1.196a.69417.69417,0,0,0,.7095.2311,98.88716,98.88716,0,0,1,4.2199,14.1867c.7608,3.7494,1.5851,7.92.5193,11.702-2.0828,7.3909-11.4091,10.1574-15.7368,2.6287-5.0723-8.8253-7.7024-19.9425-10.703-30.0488a.99351.99351,0,0,0,.4959-.197,16.45815,16.45815,0,0,1-1.3057-3.6851C-.39317,9.082,5.14473.83211,14.15044,1.73911c7.38169.7436,12.30469,6.8037,15.49859,12.9811,5.3979,10.4405,7.5685,22.2938,9.301,33.8107C39.904,54.87171,41.46723,62.66871,37.92933,68.56431Z"/></g></g></svg>