<svg xmlns="http://www.w3.org/2000/svg" viewBox="0 0 91.02489 95.85744"><title>Asset 8</title><g id="Layer_2" data-name="Layer 2"><g id="Objects"><path d="M45.81773,44.625a8.08278,8.08278,0,1,0-12.38439-5.0375,7.621,7.621,0,0,0,5.14559,5.5341c-9.622,2.5216-15.5101,12.0631-14.9831,22.1351a.80059.80059,0,0,0,.5362.7338.7314.7314,0,0,0,.5594.2074q18.16365-.66285,36.333-1.1372a.78539.78539,0,0,0,.7791-.7158.9504.9504,0,0,0,.20981-.4811A18.67,18.67,0,0,0,45.81773,44.625Zm-10.6135-4.8361a6.35213,6.35213,0,0,1,12.0017-4.1568c1.1699,3.302-.3423,7.5024-3.8331,8.2206a.79208.79208,0,0,0-.6176-.0993A6.414,6.414,0,0,1,35.20423,39.78891Zm24.6719,24.8853.2696.7511q-17.45115.46005-34.8955,1.0932c-.1922-10.1202,6.5067-19.9226,17.4023-20.3665a16.96442,16.96442,0,0,1,17.8513,17.5385A.72107.72107,0,0,0,59.87613,64.67421Z"/><path d="M40.40353.80081c-.04019-1.0652-1.701-1.0703-1.6604,0q.45195,11.94675,1.0418,23.8871c.05241,1.0638,1.7132,1.0703,1.6605,0Q40.85563,12.74776,40.40353.80081Z"/><path d="M21.02083,50.15341q-9.8913-5.8263-19.783-11.6527a.8309.8309,0,0,0-.8382,1.4338q9.8919,5.8266,19.783,11.653A.831.831,0,0,0,21.02083,50.15341Z"/><path d="M21.05634,72.24081q-8.47291,6.40335-16.94661,12.8064c-.8419.6361-.0152,2.0787.8382,1.4337q8.4735-6.40335,16.9466-12.8063C22.73634,73.03841,21.90973,71.59581,21.05634,72.24081Z"/><path d="M45.15653,94.65961c-.03-.0794-.0604-.1588-.0905-.2381a.852.852,0,0,0-.9368-.5416,4.39662,4.39662,0,0,0,.40611-3.0027q-.01831-.8706-.03691-1.7415l-.1294-6.0946q-.11953-5.6595-.2398-11.3189a.83076.83076,0,0,0-1.6605,0q.14745,6.96585.2953,13.931c.0638,3.022-.6152,6.9929.5882,9.8037a.84012.84012,0,0,0,1.13611.298q.14339-.0786.28679-.1578A.83584.83584,0,0,0,45.15653,94.65961Z"/><path d="M90.61862,77.71441q-10.79038-6.0891-21.78269-11.804c-.947-.4922-1.7875.9402-.8379,1.4338q10.993,5.71515,21.78239,11.8043A.831.831,0,0,0,90.61862,77.71441Z"/><path d="M76.77063,32.45641a202.42531,202.42531,0,0,0-17.73,12.7159c-.8338.6682.348,1.8365,1.1743,1.174a198.41507,198.41507,0,0,1,17.3939-12.4561C78.50713,33.31691,77.675,31.87911,76.77063,32.45641Z"/></g></g></svg>