<svg xmlns="http://www.w3.org/2000/svg" viewBox="0 0 93.65396 62.87143"><title>Asset 28</title><g id="Layer_2" data-name="Layer 2"><g id="Objects"><path d="M93.55611,44.31949q.1125-10.049-.6845-20.08c-.4918-6.2195.3568-17.7567-6.2979-21.2465-2.9068-1.5243-7.1567-1.1848-10.3067-1.3321-6.7885-.3176-13.5777-.6223-20.3689-.8747-13.5479-.5033-27.2026-1.0766-40.7586-.6189-5.0879.1716-11.5635,1.5699-12.8304,6.3676a5.78861,5.78861,0,0,0-1.2263,3.6655.79507.79507,0,0,0-.2548.5568c-.6175,12.0121-1.05,24.1012-.7067,36.1306.1662,5.8287,1.0804,11.7395,7.0695,14.204,8.4453,3.475,20.3324.8463,29.1587.526q18.67695-.67695,37.3546-1.3547c5.2987-.1923,16.3892,2.2229,19.0013-4.1027C94.13041,52.709,93.51561,47.93679,93.55611,44.31949Zm-2.2027-19.3833a.7634.7634,0,0,0-.5439-.221c-.1595-.0013-.3189-.001-.4784-.0023q-1.2831-2.91285-2.5655-5.826c.6709,1.0844,1.3135,2.1918,1.9013,3.3591.4162.827,1.8602.2449,1.5176-.6396-.0446-.1158-.0899-.2317-.1345-.3476a.88466.88466,0,0,0,.1683-.0274C91.273,22.48409,91.31351,23.72839,91.35341,24.93619Zm-53.3167-1.1179-.2088-.4203c.6493.0385,1.2993.0828,1.9493.1176.1203.13.2392.2618.3608.3915-.1736.002-.3473.0091-.5202.0108a.79344.79344,0,0,0-.8014.8409c-.3067.0034-.6142.0068-.9209.0098A.86942.86942,0,0,0,38.03671,23.81829Zm-28.504,1.3658c-1.6811.0328-3.3615.0568-5.0419.0926a.68838.68838,0,0,0-.0425-.1797c.0723.0229.125.0388.2054.0648a.86322.86322,0,0,0,1.0486-.9564q1.76055.3147,3.523.5895C9.32661,24.927,9.432,25.04969,9.53271,25.18409Zm18.2479-13.4628q1.51425.0081,3.0277.0152a.75308.75308,0,0,0-.2419.6706q-1.28-.21075-2.5614-.4216C27.93,11.89739,27.85561,11.80919,27.78061,11.72129Zm4.3162.1541a.948.948,0,0,0-.1452-.1331c1.4567.0081,2.9135.0128,4.3702.0216a.9983.9983,0,0,0,.0034.301c-.0034.0125-.0074.025-.0101.0379-.4737.002-.9473-.0044-1.421-.0017a.88434.88434,0,0,0-.6648,1.3658c-.2608-.006-.5223-.0125-.7831-.0185a.69424.69424,0,0,0-.5798-.6629l-.0473-.0081C32.582,12.47339,32.332,12.18209,32.09681,11.87539Zm32.4033.1983a.60942.60942,0,0,0-.1169-.097q3.522.03045,7.0439.0636c-1.9804.1071-3.9594.2239-5.9385.3648a.857.857,0,0,0-.4412.1618c-.054-.002-.1074-.003-.1615-.005Q64.69331,12.31814,64.50011,12.07369Zm-46.8552,12.1125q-.2433-.4287-.4872-.8575c.5527.1592,1.1068.3051,1.6608.4524.1412.1845.2865.3642.4264.55C18.71171,24.28509,18.178,24.23819,17.64491,24.18619Zm-7.0635-.8642c-.4581-.8811-.9054-1.7703-1.3845-2.6358q1.2771,1.4016,2.5534,2.803Q11.16546,23.40819,10.58141,23.322Zm27.3465-7.124c.0318.0754.0669.15.098.2257q-1.28715-.2103-2.571-.449a.88678.88678,0,0,0,.0176-.1638q.47235.02925.9453.0591C36.92051,15.98149,37.42391,16.09329,37.92791,16.198Zm31.0384,1.5287q-.1824-.23055-.3635-.4601.6375.04455,1.2764.0902.0678.20175.1371.4037C69.66631,17.75,69.31631,17.73789,68.96631,17.72669ZM13.482,14.643c.6149.0067,1.2304.0243,1.8453.0229.0899.1659.1763.3328.2649.499q-.9588-.0345-1.9162-.0689c-.0683-.0743-.1406-.146-.2088-.2199A.89973.89973,0,0,0,13.482,14.643Zm55.0499,7.2918,1.6101-.0598.2622.3321c-.5811.0176-1.1615.0368-1.7419.0517C68.619,22.151,68.57511,22.04289,68.53191,21.93479Zm4.5966-.1709q.80265-.0294,1.6047-.0595.1317.17025.2635.3406c-.5845.025-1.1682.0391-1.752.0614Q73.18591,21.93524,73.12851,21.76389Zm-58.9046,2.0473a.6651.6651,0,0,0-.029-.076q-.53115-.84075-1.0622-1.6811c.2378.0814.475.1645.7128.2436.4453.5334.8791,1.0797,1.3156,1.6229C14.84891,23.88479,14.53611,23.849,14.22391,23.81119Zm22.5986-3.5896c.3459.3973.6878.7987,1.0385,1.1926l-1.0013.0372-.646-1.299C36.41641,20.17469,36.61911,20.201,36.82251,20.22159Zm26.2668-7.7134q-4.65195-.15765-9.3047-.2585-2.701-.19815-5.402-.3969,7.5516.05775,15.104.1162A.85441.85441,0,0,0,63.08931,12.50819Zm-47.3073-.8467q.3528.05985.7054.1193-2.99085-.046-5.9891.0108a.76957.76957,0,0,0-.4311-.1584Q12.92426,11.64384,15.782,11.66149Zm-13.6479,7.2564a.82769.82769,0,0,0,.3824-.3077q.4521.65265.9054,1.3054-.62835-.3897-1.2959-.7649Zm2.9338-1.9631c.5047.8044,1.0006,1.6125,1.481,2.429-.7628-.723-1.5648-1.4148-2.3898-2.0895A6.9334,6.9334,0,0,1,5.06791,16.95479Zm30.4715,6.4638c-.625-.1196-1.2473-.2473-1.8716-.3686q-.76935-1.44825-1.5379-2.8959a.95.95,0,0,0-.0087-.5409c.0709.0108.1425.0199.2142.0307q.86745,1.0227,1.7364,2.0456a.83353.83353,0,0,0,.448,1.5095c.2926.0196.5851.0335.8777.0527Q35.46846,23.33479,35.53941,23.41859Zm48.5951.0054c-.6324-.3294-1.2662-.6497-1.8993-.9382-.0311-.0696-.0615-.1388-.0926-.2084.3615.0121.7291,0,1.0912.0071Q83.68381,22.854,84.13451,23.424Zm2.3284-1.1179c.027-.0007.0453-.0128.0709-.0152q.86355,1.20615,1.7277,2.4125c-.3358-.0027-.6723-.0024-1.0088-.0051q-.55635-1.19685-1.1121-2.3946C86.24871,22.302,86.35481,22.30849,86.46291,22.30609ZM3.75981,7.35379c.0419-.0487.0702-.1031.1155-.1504a.78328.78328,0,0,0,.146-.9138c2.1391-5.8061,14.5682-4.5169,19.2708-4.5189q8.1537-.0036,16.3047.1848c9.9648.2165,19.925.6088,29.8817,1.0537,7.2601.3247,17.0668-1.4733,20.1614,7.3902.0162.0463.0264.0983.0419.1449q-36.86145-.4059-73.7261-.5412-1.3662-.225-2.7338-.45a.8559.8559,0,0,0-.8986.4314c-2.8007-.0108-5.6014-.0334-8.402-.0422A7.30644,7.30644,0,0,1,3.75981,7.35379ZM2.599,11.596c1.5405.0044,3.081-.4638,4.6209-.455-.0831.0662-.1534-.2334-.2054-.2334h-.0196c-.35,0-.6034.7295-.7291,1.0184-.0169.0064-.0304.2569-.0466.264-.6919-.0047-1.4202.1547-2.1952.2314-.0514-.0808-.1196-.0902-.1642-.1757a.84049.84049,0,0,0-1.4419.0535c.0121-.2544.0209-.4938.0338-.7482C2.50231,11.55979,2.54291,11.596,2.599,11.596Zm80.4429,46.6678q-30.683,1.1127-61.3666,2.226c-4.1.1486-9.3358.9368-13.2041-.6571-7.7276-3.1848-6.7067-11.3804-6.7398-18.1081q-.03645-7.3722.1473-14.7395,14.0817-.3126,28.1648-.4719c1.7973.0209,3.5966.0213,5.402-.0237a.81781.81781,0,0,0,.1675-.0361q27.597-.29145,55.1965-.0774a.7541.7541,0,0,0,.5851-.2425c.0284.7236.0595,1.4331.1014,2.1155q.45195,7.356.4067,14.7307C91.86621,50.02319,92.39461,57.92459,83.04191,58.26379Z"/><path d="M82.95481,34.11789q-.74085.0192-1.4804.0385l-.0122.0027q-16.9458.47235-33.8931.9443a.83071.83071,0,0,0,0,1.6604q17.6928-.4926,35.3857-.9854A.83076.83076,0,0,0,82.95481,34.11789Z"/><path d="M69.02581,41.88979q-11.93715-.271-23.8749-.0912a.83075.83075,0,0,0,0,1.6605q11.9391-.18,23.8749.0912A.83075.83075,0,0,0,69.02581,41.88979Z"/></g></g></svg>