<svg xmlns="http://www.w3.org/2000/svg" viewBox="0 0 71.80027 103.86757"><title>Asset 10</title><g id="Layer_2" data-name="Layer 2"><g id="Objects"><path d="M68.9155,87.20716a.75292.75292,0,0,0-.0148-.0814.88879.88879,0,0,0-.9862-1.1558c-13.2297,2.4264-29.0509.5176-34.8076-13.4688q5.293.1317,10.58642.2638c2.30438.0575,6.33108.9949,8.37528.0912,2.72572-1.205.9561-7.5401.822-9.8577a.80672.80672,0,0,0-.04328-.1642c.23958-.5098.01758-1.2277-.69522-1.1743-5.2642.3912-10.5311.577-15.8094.4689-1.7196-.0351-5.8108.5213-7.027-.7358-1.1085-1.1453-.6426-4.6432-.5642-6.5581a169.40209,169.40209,0,0,0,24.24182-.5081.84233.84233,0,0,0,.83038-.8304q-.34215-4.39515-.6838-8.7902a.85747.85747,0,0,0-.623-1.3841q-10.40055-.3648-20.8023-.1584a.82851.82851,0,0,0,.2581-.524c1.64162-16.479,22.6868-24.5885,36.6347-22.4381a.87636.87636,0,0,0,.9561-.5649.797.797,0,0,0,.2743-.5851,124.26607,124.26607,0,0,1,1.9463-17.0459.83684.83684,0,0,0-.3821-.8811.62877.62877,0,0,0-.5858-.5594C42.21932-3.39124,12.54,13.66046,10.4069,44.235q-4.5171-.375-9.0459-.304a.84279.84279,0,0,0-1.124.4858.92618.92618,0,0,0-.0564.5007q-.0405,2.8053-.0574,5.6114c-.0061,1.1862-.4311,3.2075.3338,4.245.727.9861,2.1344.6763,3.1584.5709l5.8878-.6051L9.1367,62.788c-2.0463.0206-4.0933.0304-6.1392.0713-.9095.0183-1.7571-.0527-2.2378.825-.5146.9409-.0568,3.0703-.02638,4.0936q.10137,3.3699.20238,6.7395a.83774.83774,0,0,0,1.051.8007,23.98275,23.98275,0,0,1,8.2989-1.4389c.5646,12.1567,11.5571,20.8324,22.002,25.355,11.5925,5.0192,24.4043,5.6604,36.7131,3.3588a.68061.68061,0,0,0,.5314-.4007.84839.84839,0,0,0,.6598-1.0068A63.32284,63.32284,0,0,1,68.9155,87.20716ZM36.8116,99.20946c-11.3932-3.8908-24.8797-12.8756-24.9185-26.2367a.82318.82318,0,0,0-1.1477-.7463.69475.69475,0,0,0-.08308-.0182,25.28926,25.28926,0,0,0-8.09962,1.1922q-.11607-3.8646-.2321-7.7287-.01215-.42105-.025-.8422-.2316-.81135.6919-.3095a11.1267,11.1267,0,0,1,2.1723-.0253l4.779-.0558a.82512.82512,0,0,0,.7568-1.1169.85851.85851,0,0,0,.0824-.331l.425-9.3372a.813.813,0,0,0-1.35268-.6115q-2.19228.2256-4.38382.4507c-1.1189.1149-3.27118.7615-3.7003-.3986-.3753-1.0156.0085-2.9338.0169-4.0318q.01365-1.734.0399-3.4682a91.02476,91.02476,0,0,1,9.155.3368.67637.67637,0,0,0,.6189-.2422.78434.78434,0,0,0,.3943-.6554C13.5964,15.21316,42.4257-1.551,70.0878,2.13346a127.37807,127.37807,0,0,0-1.8757,16.3587c-15.085-1.8952-36.1755,6.8368-37.89978,24.1476a.68351.68351,0,0,0,.18848.5797.82439.82439,0,0,0,.2162,1.6122q10.40265-.221,20.7979.13c.2186,1.7524,1.1453,5.4821.5101,6.7591-1.0199,2.0507-5.53168,1.4605-7.4499,1.5463-5.3145.2372-10.625.1753-15.93678-.0963a.694.694,0,0,0-.68352.3727.78006.78006,0,0,0-.8483.7983q.0198,4.1133.0389,8.2263a.84876.84876,0,0,0,.8304.8301,170.00526,170.00526,0,0,0,23.2759-.0271q.16065,2.77965.3213,5.5601c.0811,1.4024.4534,1.6105-.7696,2.1531-1.0459.4642-2.9314.1243-3.9969.098q-7.00485-.1749-14.0091-.3494a.73452.73452,0,0,0-.7767.6602c-.4939.025-.952.4033-.7253.9878,5.7638,14.8793,21.8246,17.5831,35.964,15.2648a65.396,65.396,0,0,0,1.221,13.2584C57.9254,102.96656,47.0362,102.70136,36.8116,99.20946Z"/></g></g></svg>