<svg xmlns="http://www.w3.org/2000/svg" viewBox="0 0 108.19654 155.97173"><title>Asset 11</title><g id="Layer_2" data-name="Layer 2"><g id="Objects"><path d="M95.4049,130.90523a19.06478,19.06478,0,0,0,5.39692-1.1149.84068.84068,0,0,0,.496-1.2196A26.82052,26.82052,0,0,0,90.389,118.44643q2.065-.5853,4.1304-1.1699c.5953-.1686.8166-.4986.3662-.9399-6.4614-6.3276-14.1074-10.6398-23.06578-10.6398H71.81c.98482-3,.7797-5.4172-2.01918-7.1017a3.27406,3.27406,0,0,0-2.27162-3.6484,18.84248,18.84248,0,0,0,1.077-2.2349.83853.83853,0,0,0,1.0314-.6093,8.16886,8.16886,0,0,0,.0216-1.7966c5.1324,3.2105,10.3645,6.1674,15.7547,8.9259.598.3061,1.47092-.2158,1.2196-.9445-3.1446-9.1172-6.6041-18.4396-11.1703-26.9578-3.2135-5.9953-9.5148-7.1953-15.7208-9.349a.70816.70816,0,0,0-.5784.0315,153.36035,153.36035,0,0,0-14.73918-26.3642C33.3723,20.06513,18.8305,7.29133,1.0511.04643a.83512.83512,0,0,0-1.051.8002A194.35014,194.35014,0,0,0,2.9129,31.292a.72032.72032,0,0,0,.0835.4689c3.4922,19.3165,10.2277,38.1925,21.3006,54.0694-1.8963,6.6973-5.63818,12.979-.51318,18.6395a270.09626,270.09626,0,0,0,23.94828,22.9837c.4739.4091,1.5189.1949,1.4172-.5868a161.64727,161.64727,0,0,0-4.2091-21.2554,36.283,36.283,0,0,0,6.5841-.7118c.0547,2.7,1.5628,3.7946,3.5442,4.0051a4.10013,4.10013,0,0,0,2.8949,4.0415,5.43691,5.43691,0,0,0,2.3237.2297,27.66376,27.66376,0,0,0-.3926,8.7439.84284.84284,0,0,0,1.4172.5872c2.3527-2.028,1.85212-.6909,2.5264,1.9824.6115,2.4247,1.10472,4.8669,1.7554,7.2841a148.591,148.591,0,0,0,4.6878,14.2277.8385.8385,0,0,0,1.6014,0c.3712-1.0672.83612-4.2034,2.2148-4.2949.2696-.0179,4.35,4.1209,4.7149,4.4148a44.25892,44.25892,0,0,0,8.3543,5.3007,45.91358,45.91358,0,0,0,20.2162,4.55.84427.84427,0,0,0,.8006-1.0511A40.43358,40.43358,0,0,0,95.4049,130.90523ZM69.405,67.46993c3.6331,1.8703,4.5486,4.4696,6.2631,8.0959a224.81709,224.81709,0,0,1,8.6578,21.2114c-4.7956-2.5165-9.47808-5.1939-14.0726-8.0763a.71631.71631,0,0,0-.8412.0186c-.6352-2.9128-2.2149-5.9868-3.0848-8.479-1.7646-5.0571-3.6632-10.0682-5.7598-14.9976-.2054-.4831-.422-.9615-.6311-1.4429A70.43812,70.43812,0,0,1,69.405,67.46993ZM47.179,124.763c-5.5986-4.8933-11.0456-9.9507-16.2685-15.2463-2.9463-2.9875-6.4314-5.6253-7.3824-9.7621-.8865-3.8581.7868-8.2902,2.003-12.2375a97.45448,97.45448,0,0,0,16.3581,17.6176.84022.84022,0,0,0,.929.1135.769.769,0,0,0,.421.3.79.79,0,0,0,.0098.1486A158.73077,158.73077,0,0,1,47.179,124.763Zm-3.7104-20.8121a.81739.81739,0,0,0-.3585.0682c-.0192-.0189-.025-.0405-.047-.0588-14.7742-12.328-25.15928-29.3789-31.7262-47.3252a153.90093,153.90093,0,0,1-6.6412-24.4468,23.05063,23.05063,0,0,0,15.554-4.3852c2.7753-1.9614,6.7152-5.6195,6.7652-9.43a111.64058,111.64058,0,0,1,16.5844,19.0016,152.662,152.662,0,0,1,13.5793,24.2452c2.3166,5.1159,4.4017,10.3365,6.3223,15.6132q1.043,2.8656,2.0193,5.7557c.1875.552,1.8405,4.7696,2.925,7.1746a.79547.79547,0,0,0-.9038.5585C64.41782,100.61583,52.878,104.19073,43.4686,103.95093Zm12.0506,3.6192c-1.397-.1088-2.4095-.9179-2.351-3.0466,5.3571-1.3635,10.32162-4.0706,13.4577-8.4226a.80811.80811,0,0,0,.1737.1003c4.5604,1.5335-3.297,8.2328-4.1875,8.8497a15.9,15.9,0,0,1-6.198,2.5A.863.863,0,0,0,55.5192,107.57013Zm1.1922,1.3348a16.5505,16.5505,0,0,0,7.1615-2.7111,18.96729,18.96729,0,0,0,5.4236-6.3824c3.1564,2.3557.3585,6.7033-2.1439,8.4239a27.96216,27.96216,0,0,1-3.1784,1.8213,10.28109,10.28109,0,0,1-3.3023,1.3034C59.2101,111.54073,56.3472,111.39713,56.7114,108.90493Z"/><path d="M32.9152,36.92853c-2.3537-2.8163-7.32938-4.3135-10.13438-1.8615a.85377.85377,0,0,0-.38852.1699c-4.1612,3.301-6.7287,9.3503-3.48548,14.1885a8.04854,8.04854,0,0,0,12.451,1.453C35.2095,47.32,36.43882,41.144,32.9152,36.92853Zm-4.5976,14.0354c-3.75978,1.7736-8.0966-.7645-9.03978-4.7375-.72442-3.0493.55128-5.9301,2.53778-8.149a.68108.68108,0,0,0,1.0436-.305c2.4283-5.5581,9.4928-.6061,10.3604,3.3834A9.24838,9.24838,0,0,1,28.3176,50.96393Z"/><path d="M38.7426,61.09763a.83519.83519,0,0,0-.7061.1737c-3.85068,3.1064-5.7622,8.4547-3.1933,13.0087a8.29515,8.29515,0,0,0,11.6162,3.1851C54.61282,72.303,46.581,56.83893,38.7426,61.09763ZM43.1912,76.929a6.85946,6.85946,0,0,1-7.6132-5.251,8.629,8.629,0,0,1,2.6129-8.3081.8292.8292,0,0,0,.3871-.1821C45.2946,57.46663,53.9895,75.08713,43.1912,76.929Z"/></g></g></svg>