<svg xmlns="http://www.w3.org/2000/svg" viewBox="0 0 154.08611 102.17905"><title>Asset 7</title><g id="Layer_2" data-name="Layer 2"><g id="Objects"><path d="M126.27745,15.62773c-1.1119-4.2031-2.525-12.5429-7.2345-14.4a.89622.89622,0,0,0-.9716-1.2128c-12.0324,2.127-22.7699,7.7925-33.556,13.278-5.25908,2.675-10.5026,5.3871-15.6128,8.3395-7.0118,4.0506-12.4425,7.875-20.956,7.9635-14.0722.1459-43.71128-3.5031-47.5302,16.0739-3.23179,16.5668,12.9736,22.2215,27.0394,23.7955.01052.026.0193.0527.0301.0787a.89143.89143,0,0,0,1.6047.0879c1.7703.1615,3.4845.2574,5.1125.3088l-.0051.0152c-.9861,8.4141-2.9662,18.9469-1.2844,27.3401.7716,3.8506,2.9885,5.2604,6.93072,4.7986,3.853-.451,5.953-2.0949,6.05708-6.0223.2226-8.3955-2.17908-17.7915-3.5216-26.0374a.71649.71649,0,0,0-.0264-.0696c23.3685.1406,46.2157,4.6078,66.014,17.6642a6.704,6.704,0,0,0,.86892.5635c.17328.1169.35068.2213.52358.3395a.70467.70467,0,0,0,.571.1196,6.65023,6.65023,0,0,0,3.6452.0534c6.7189-1.6497,9.9669-10.7057,11.477-16.505a130.23587,130.23587,0,0,0,3.6946-28.2699A98.402,98.402,0,0,0,126.27745,15.62773ZM1.82745,47.536c1.00582-12.1371,14.5324-15.2445,25.3773-16.1939-2.8794,3.5757-3.7277,10.5088-4.0496,14.548-.6125,7.6803,1.0864,15.1445,3.8037,22.2695C15.57475,67.09.68115,61.36673,1.82745,47.536Zm41.4191,39.7202c.2609,2.0283.5304,4.058.7413,6.0925q.18135,1.35615.253,2.7236-2.107,7.0734-6.377,1.7994c-3.9554-2.6301-3.4361-2.8767-3.3963-6.9254q.0345-3.50715.19872-7.0128c.21818-4.6682.64618-9.3151,1.18978-13.9557.8244.0108,1.6254.0125,2.3818.001.875-.0131,1.7483-.0071,2.6223-.0084a.82992.82992,0,0,0-.0815.5061C41.68715,76.05723,42.52565,81.64773,43.24655,87.25623Zm15.8088-18.2561c-10.1122-1.0601-20.1716-.1588-30.281-.7054a52.676,52.676,0,0,1-4.0736-18.0296,39.80213,39.80213,0,0,1,.677-8.4909,36.35044,36.35044,0,0,1,1.08852-4.2301,10.34424,10.34424,0,0,0,1.63718-5.8273.82542.82542,0,0,0,1.4256.0328l.11622-.1963a.80477.80477,0,0,0,.099-.4017c1.19358-.075,2.33678-.1287,3.40268-.1713,8.953-.3564,18.4125,1.8997,26.7786-2.1375,18.6284-8.9885,35.6405-22.3415,56.2242-26.7357-11.6263,12.405-15.0348,32.1567-16.21548,48.5235-.68582,9.505.01858,19.3283,3.35778,28.3236a40.43926,40.43926,0,0,0,2.04422,4.7959C91.24985,75.37483,75.41005,70.715,59.05535,69.00013Zm45.1194-34.4293c8.9514-.5462,9.0959,20.9398-2.73848,19.1804a110.99756,110.99756,0,0,1,1.46078-13.7131c.2997-1.8176.623-3.6598.9767-5.5102A.79542.79542,0,0,0,104.17475,34.57083Zm23.31252,9.3598a151.22551,151.22551,0,0,1-2.23992,21.0672,67.60892,67.60892,0,0,1-2.0166,8.9749,31.36139,31.36139,0,0,1-2.5118,6.099q-.5862.96585-1.1726,1.9314-3.1338,7.17615-8.5919,2.5105c-4.7381-2.0101-4.8726-2.6642-6.4449-7.1186-.5236-1.4841-.9527-2.9962-1.3324-4.5233a62.31676,62.31676,0,0,1-1.6878-11.4611c-.1149-2.0013-.1389-4.002-.0997-6.001,13.57562,1.648,14.3418-23.1803,2.8007-22.4992,2.2114-10.9375,5.752-22.0189,13.5202-30.0641a.8405.8405,0,0,0,.17472-.2733c5.26918,1.0631,7.53738,16.081,8.28838,20.3715A102.68038,102.68038,0,0,1,127.48727,43.93063Z"/><path d="M135.27835,25.09423c-.4807-.9547-1.9138-.1152-1.4337.8378a40.12922,40.12922,0,0,1,3.0685,28.5661.83109.83109,0,0,0,1.6014.4416A41.99488,41.99488,0,0,0,135.27835,25.09423Z"/><path d="M146.22765,17.88983c-.504-.9425-1.9381-.1047-1.4337.8382a64.00154,64.00154,0,0,1,2.7685,54.7616c-.4044.9886,1.2014,1.419,1.601.4416A65.558,65.558,0,0,0,146.22765,17.88983Z"/></g></g></svg>