<svg xmlns="http://www.w3.org/2000/svg" viewBox="0 0 126.06208 107.18939"><title>Asset 19</title><g id="Layer_2" data-name="Layer 2"><g id="Objects"><path d="M119.89118,36.37944c-.7987-4.5429-1.0311-12.0733-6.9845-12.4361-.2601-1.0656-.5006-2.1352-.7669-3.1997a.818.818,0,0,0-.5797-.5797,25.344,25.344,0,0,0-6.8006-.5443c-1.5392-6.3236-3.0433-12.6553-4.471-19.0067a.83292.83292,0,0,0-.8006-.6098,56.19783,56.19783,0,0,0-44.2425,31.1651c-10.4155-17.5823-41.1025-8.3547-54.8498-.8016a.85089.85089,0,0,0-.2973,1.1361Q4.8,41.70169,8.84688,52.14694q-1.96305,1.0698-3.9263,2.1392a.83423.83423,0,0,0-.3818.9375c.7149,1.7429,1.3933,3.4989,2.0892,5.2486l-2.7838,3.4625a.88639.88639,0,0,0-.1297,1.0061q8.9838,20.47845,16.1892,41.64a.83909.83909,0,0,0,1.3871.3666,64.26767,64.26767,0,0,1,48.6911-19.3422c.0101.0007.0162-.0044.0263-.0044a.80789.80789,0,0,0,1.3716.2703.74115.74115,0,0,0,1.2696.2145c.0399-.0486.0811-.0969.1217-.1456a.83332.83332,0,0,0,.981-.0848,67.08467,67.08467,0,0,1,51.4958-15.4094c.5851.0689.8831-.5824.8007-1.051Q122.96953,53.887,119.89118,36.37944Zm-6.1973-2.0321q1.647,7.2597,3.0932,14.5635c.3399,1.7141,3.827,13.2455,2.7021,14.6411-1.4669,1.8189-7.7919.0659-10.3406.2034-14.2445.7693-25.7735,9.5993-34.8911,19.8982,3.1176-18.1083,19.4479-35.2654,38.9418-26.111a.84143.84143,0,0,0,1.2196-.9379q-4.92765-17.5797-9.2493-35.3137C112.17768,21.31424,112.429,28.77374,113.69388,34.34734Zm-86.9551,65.3984a38.17857,38.17857,0,0,1-3.5,2.9618c-2.3061,1.2747-1.2365,1.8757-3.0189-.3162-2.5108-3.0875-3.5412-9.9287-4.9581-13.656q-2.8155-7.40775-5.8622-14.7246c-1.6446-3.9493-4.5101-7.85-2.0486-11.7223q6.77835,17.21655,12.3777,34.8597a.84223.84223,0,0,0,1.3878.3666,52.22661,52.22661,0,0,1,42.3863-11.499A65.3455,65.3455,0,0,0,26.73878,99.74574Zm2.7317-9.9604c-1.029.5473-7.3574,5.3726-7.9405,5.2243-2.5831-.6568-4.2446-10.6854-5.1365-13.2517q-2.5854-7.43505-5.4013-14.7871c-1.6696-4.3584-5.7392-9.9986-1.5169-13.1864q5.4771,14.29305,9.7743,29.0252a.8381.8381,0,0,0,1.2196.4963,41.48125,41.48125,0,0,1,48.014,2.0595A53.93409,53.93409,0,0,0,29.47048,89.78534Zm13.729-14.9125a42.412,42.412,0,0,0-16.4891,3.1645c-1.473.6142-4.7189,2.999-6.0108,2.2865-1.8547-1.0229-3.4344-9.7023-4.1054-11.7259q-3.71145-11.1948-8.1682-22.1226-1.7727-4.3464-3.6561-8.6466c-.802-1.8297-2.4479-4.0149-1.7642-5.9963.8244-2.3898,4.5858-3.2851,6.8683-4.175,12.4709-4.8611,36.7715-9.5729,44.5323,5.3896a.86349.86349,0,0,0,.202.5945q7.60635,24.81135,14.2918,49.887A42.85857,42.85857,0,0,0,43.19948,74.87284Zm28.5513,11.7098a.68373.68373,0,0,0-.1716-.8777c-.1581-.1399-.323-.2706-.4831-.4078q-6.96495-26.26665-14.9317-52.2478c6.677-14.3905,21.2722-28.4803,37.6721-30.5124,6.5757-.8145,6.3142,5.0223,7.4926,10.0314q1.653,7.02765,3.4013,14.0324,3.6111,14.45055,7.6351,28.7911c-20.758-8.3412-37.9613,10.8331-40.0958,30.5722C72.09668,86.17044,71.92108,86.37554,71.75078,86.58264Zm51.7464-16.7496c-1.4337,1.5811-9.1236.3757-11.6641.5618a68.13575,68.13575,0,0,0-35.16,13.078c11.3756-12.2277,26.4681-21.5709,43.8437-16.6716a.84114.84114,0,0,0,1.0217-1.0212q-3.3912-20.19585-8.2135-40.0908c4.7554.95,5.1175,11.9986,5.6756,15.1716q1.30245,7.40775,2.6048,14.8145C122.06208,58.27024,125.17628,67.98164,123.49718,69.833Z"/><path d="M99.49928,41.64254a29.20646,29.20646,0,0,0-28.5668,23.7547c-.2101,1.0432,1.3899,1.4898,1.6014.4415a27.54715,27.54715,0,0,1,26.9654-22.5354A.8309.8309,0,0,0,99.49928,41.64254Z"/><path d="M92.34188,31.93724a30.67056,30.67056,0,0,0-23.6722,17.5377c-.4473.9629.9838,1.8071,1.4338.8379a29.19,29.19,0,0,1,22.6803-16.7743C93.83718,33.39154,93.38858,31.79124,92.34188,31.93724Z"/><path d="M89.81018,21.39834A27.916,27.916,0,0,0,65.765,38.76524c-.4074.9868,1.1986,1.4172,1.6013.4415a26.18751,26.18751,0,0,1,22.4439-16.1479C90.87028,22.98484,90.87838,21.32374,89.81018,21.39834Z"/><path d="M58.69,67.22864c-8.9885-7.6023-28.0276-4.1067-35.5519,4.1912-.7162.7902.4547,1.9679,1.1743,1.1743,6.6493-7.3331,25.0006-11.129,33.2033-4.1915C58.32648,69.08874,59.50688,67.91984,58.69,67.22864Z"/><path d="M58.42918,59.33774a35.11957,35.11957,0,0,0-34.5783.4352.831.831,0,0,0,.8386,1.4338,33.38073,33.38073,0,0,1,32.9019-.4352C58.53258,61.27734,59.37248,59.84424,58.42918,59.33774Z"/><path d="M53.99138,46.74964c-10.7148-7.1003-22.9209-4.0554-34.2067.0034-.9979.3588-.5675,1.9638.4419,1.601,10.8372-3.8973,22.5567-7.0419,32.927-.1706C54.04678,48.77534,54.87918,47.33784,53.99138,46.74964Z"/><path d="M47.18528,33.80784a35.92919,35.92919,0,0,0-30.4066,2.1756c-.9379.5125-.1007,1.947.8385,1.4338a34.30052,34.30052,0,0,1,29.1262-2.0084C47.74478,35.78554,48.17788,34.18114,47.18528,33.80784Z"/></g></g></svg>