<svg xmlns="http://www.w3.org/2000/svg" viewBox="0 0 88.8373 108.05135"><title>Asset 17</title><g id="Layer_2" data-name="Layer 2"><g id="Objects"><path d="M83.62136,43.65624c6.3088-8.0246,7.9317-20.231-1.0122-27.1759a13.62671,13.62671,0,0,0-15.0101-1.2655c-7.9398-18.1942-31.7762-20.6567-43.1735-4.2061a.787.787,0,0,0-.1283.302c-4.5385-2.3371-9.9284-2.276-15.1858,1.6095-8.0405,5.9419-10.6202,18.8982-1.5459,25.008a.75848.75848,0,0,0,.1601.0656,42.46863,42.46863,0,0,0,9.3175,58.3417c-2.2797,2.6824-7.125,6.5962-3.9723,10.4547a3.843,3.843,0,0,0,4.6203.8604,6.7412,6.7412,0,0,0,2.5223-2.0267c.3446-.4256,2.5777-3.856,2.6405-3.8168.8122.5013,1.5547-.5791,1.0683-1.2183a45.511,45.511,0,0,0,23.735,4.6487.75432.75432,0,0,0,.1-.0277.83173.83173,0,0,0,.4426.0412,56.32006,56.32006,0,0,0,21.4202-8.7264c1.4311,3.3467,5.4554,8.8423,9.2655,5.9774,3.9027-2.9348-.3203-8.5598-2.973-11.1297A39.06367,39.06367,0,0,0,87.27,70.31124a42.52543,42.52543,0,0,0-4.1547-26.3776A.668.668,0,0,0,83.62136,43.65624Zm.073-23.7252c5.7168,6.7804,3.8858,16.0226-1.2467,22.5513a.69387.69387,0,0,0-.0412.0804A45.65452,45.65452,0,0,0,63.41126,23.531c-.2236-.1142-.4486-.2142-.6723-.3244a.82174.82174,0,0,0,.4257-.4702C66.51466,13.679,77.85986,13.01114,83.69436,19.931Zm-57.8343-8.0845a22.91062,22.91062,0,0,1,40.3249,4.2176c.0067.0169.0202.0257.0277.0419a13.20535,13.20535,0,0,0-2.8467,2.8594c-5.3351-14.6128-25.256-16.3509-34.5654-4.28a18.41993,18.41993,0,0,0-3.1777-2.6105A.87358.87358,0,0,0,25.86006,11.84654Zm36.4242,8.8679a13.80781,13.80781,0,0,0-.7209,1.5808.79655.79655,0,0,0-.0487.3206,41.96653,41.96653,0,0,0-28.7283-2.3392,23.37608,23.37608,0,0,0-2.8696-4.3493c8.5081-11.6172,27.8202-9.7517,32.1932,4.4699A.85464.85464,0,0,0,62.28426,20.71444ZM11.598,13.25674c8.2702-4.7345,15.6432.1412,19.5573,7.4966a45.43358,45.43358,0,0,0-22.5066,15.9888.86919.86919,0,0,0-.2453-.248C-.32774,30.61514,3.63986,17.81274,11.598,13.25674Zm9.6891,87.9301c-1.304,1.5483-2.0506,3.7375-3.8979,4.7648-2.8331,1.575-4.1804-1.4888-3.1426-3.7608.8737-1.9121,2.8041-3.2564,4.1196-4.8543.0081-.0095.0088-.02.0162-.0298a44.47231,44.47231,0,0,0,4.6818,2.8433A2.19647,2.19647,0,0,0,21.28706,101.18684Zm57.289-1.0257a2.37943,2.37943,0,0,1-3.5425.7841,7.95766,7.95766,0,0,1-1.7581-1.5091,11.33712,11.33712,0,0,1-2.2689-3.8986,46.81484,46.81484,0,0,0,3.6973-3.025C76.49436,94.22064,79.789,97.94564,78.57606,100.16114Zm6.2473-46.6228c6.548,25.4891-13.1006,45.5546-36.887,50.0745a.79023.79023,0,0,0-.2791-.0358c-21.9269,1.6591-41.9492-13.0635-45.4965-35.0766-3.4459-21.3871,10.9237-42.8039,32.2357-47.3529C57.19306,16.28174,79.12746,31.363,84.82336,53.53834Z"/><path d="M77.70446,60.99984c-2.7135-19.2057-19.0756-36.1563-39.5032-33.0101-18.2398,2.8091-31.7344,20.0756-29.679,38.4617a34.03613,34.03613,0,0,0,36.7668,30.007.8272.8272,0,0,0,.7547-.6294C64.41,94.54264,80.45586,80.472,77.70446,60.99984Zm-33.5019,33.2556a.77444.77444,0,0,0-.7608.6007c-15.9736.3648-30.2073-10.4473-32.9945-26.5888-2.8169-16.3114,7.3797-32.5235,23.102-37.4945,18.9175-5.9807,36.5519,7.2308,41.439,25.2959,2.7459,10.1527,1.4696,20.0249-5.9696,27.8567C62.55786,90.72744,53.42756,94.04264,44.20256,94.25544Z"/><path d="M55.57216,76.09234q-4.9662-5.0514-9.9318-10.1034a2.81484,2.81484,0,0,0-.0885-1.4601,2.72085,2.72085,0,0,0-1.6858-1.6399q1.31145-13.60725,2.6223-27.2144c.1027-1.0632-1.5581-1.0561-1.6601,0q-1.30545,13.54815-2.6115,27.0962a2.08666,2.08666,0,0,0-1.5872,1.7081c-.0094.0466.0021.0953-.0047.1422a2.51065,2.51065,0,0,0,1.1953,3.3656,2.6847,2.6847,0,0,0,2.9925-.4706q4.33785,4.4118,8.6743,8.8243a.83148.83148,0,0,0,.3358.5209q.372.2676.7433.5351C55.34716,77.95924,56.21536,76.747,55.57216,76.09234Z"/><path d="M42.16846,31.55684v3c0,1,3,1,3,0v-3Z"/><path d="M17.823,60.35994c-1.5987-.4378-3.2169-.772-4.8473-1.0497a.76681.76681,0,0,0-.5939-.2564q-.47445-.002-.9473-.0044c-.9041-.0044-1.1703,1.495-.221,1.6308a50.2387,50.2387,0,0,1,6.1682,1.281A.831.831,0,0,0,17.823,60.35994Z"/><path d="M43.08436,86.52674q-.21285,2.2449-.4244,4.4899c-.1,1.0635,1.5608,1.0567,1.6608,0q.212-2.245.4237-4.4899C44.84516,85.46354,43.18366,85.47034,43.08436,86.52674Z"/><path d="M71.16846,61.55684h-7v1h7C72.16846,62.55684,72.16846,61.55684,71.16846,61.55684Z"/><path d="M65.20316,45.13394a1.95953,1.95953,0,0,1-1.1446,1.1669c-.9905.374-.5615,1.9797.4412,1.6014a3.775,3.775,0,0,0,2.3048-2.3267C67.16936,44.56944,65.56536,44.13564,65.20316,45.13394Z"/><path d="M55.287,36.34714a1.15283,1.15283,0,0,1-.9331,1.2196c-1.0392.2473-.5993,1.849.4412,1.601a2.81426,2.81426,0,0,0,2.1521-2.8206C56.912,35.28134,55.25116,35.27624,55.287,36.34714Z"/><path d="M30.99786,41.18834a8.18092,8.18092,0,0,0-2.6-2.4837.83076.83076,0,0,0-.8378,1.4337,6.27087,6.27087,0,0,1,2.004,1.8882C30.15736,42.90864,31.59656,42.07824,30.99786,41.18834Z"/><path d="M20.04046,49.17184q-1.347-.91875-2.6939-1.8382c-.8845-.6037-1.7162.8344-.8378,1.4338q1.34685.9192,2.6932,1.8381C20.08706,51.20964,20.91886,49.77144,20.04046,49.17184Z"/><path d="M20.81816,73.15784q-.69225.865-1.3838,1.7301c-.6608.8267.5068,2.0091,1.1744,1.1743q.6912-.865,1.3831-1.73C22.65266,73.50514,21.48506,72.32274,20.81816,73.15784Z"/><path d="M29.08366,82.85924a3.79159,3.79159,0,0,0-2.5331,2.7675c-.2311,1.0412,1.3689,1.4858,1.6007.4412a2.10905,2.10905,0,0,1,1.3736-1.6074C30.52966,84.11494,30.09786,82.51024,29.08366,82.85924Z"/><path d="M60.714,84.89124q-1.2222-1.0236-2.4452-2.0473c-.8142-.6814-1.9953.4872-1.1744,1.1744q1.22235,1.0236,2.4453,2.0473C60.35386,86.747,61.535,85.57844,60.714,84.89124Z"/><path d="M68.08426,75.73624a3.96918,3.96918,0,0,0-3.1176-1.8372c-1.0655-.0824-1.0601,1.5784,0,1.6609a2.196,2.196,0,0,1,1.6838,1.0145C67.23086,77.46694,68.66936,76.63594,68.08426,75.73624Z"/></g></g></svg>