<svg xmlns="http://www.w3.org/2000/svg" viewBox="0 0 90.3572 130.83162"><title>Asset 5</title><g id="Layer_2" data-name="Layer 2"><g id="Objects"><path d="M89.72788,80.94048c-3.56621-21.6104-27.90431-26.2104-42.90391-37.5806a10.62629,10.62629,0,0,0,1.4162-1.7321c1.4432-2.2365,1.1138-5.0659-1.4612-5.8446a4.73763,4.73763,0,0,0-1.13209-4.0888.84452.84452,0,0,0-.729-.3372c1.76449-2.8216,6.96689-5.3047,9.09249-6.9206a22.64286,22.64286,0,0,0,5.3399-5.2655c2.3317-3.4827,3.1878-8.5621.2658-12.0047-2.3908-2.8169-6.6317-3.3513-9.94619-2.006-3.53781,1.4361-5.63281,4.5966-6.83041,8.0526-1.8888-6.5493-4.974-14.2607-12.9145-13.0952-7.9047,1.1605-10.2456,9.4956-8.776,16.2831-2.8077-1.8027-5.976-3.4102-9.3455-2.9926-2.601.3226-4.9051,1.879-4.6841,4.7439.2608,3.3851,3.932,5.8459,6.327,7.7452,3.627,2.8764,7.2939,5.5284,9.4077,9.7439-1.503,1.4548-2.6851,3.3149-1.4128,5.3791a3.93624,3.93624,0,0,0,1.0459,1.1064,3.47314,3.47314,0,0,0-1.403,5.2794,5.14644,5.14644,0,0,0,1.7223,1.6641.82593.82593,0,0,0-.146.4098c-.42059,6.0024-4.8432,9.8639-8.4618,14.1443a72.03079,72.03079,0,0,0-7.8456,11.108C2.591,81.42018.05788,88.94618.00107,96.67088c-.1219,16.6013,10.2044,28.3066,25.9385,32.3546C57.46277,137.13488,95.74137,117.38028,89.72788,80.94048ZM46.06307,37.28018c2.42881.523,1.4933,2.2956-.1648,4.0121a7.17694,7.17694,0,0,1-1.1527-2.6554A7.262,7.262,0,0,0,46.06307,37.28018Zm-3.8405,1.2226a4.13337,4.13337,0,0,1-1.352-3.2223.715.715,0,0,0-.3446-.6594c.9554-.3821,1.9044-.7956,2.83991-1.2777a.67816.67816,0,0,0,.97429-.5396c.003-.0202.0121-.0402.0155-.0604C46.09217,35.24268,44.63817,37.13388,42.22257,38.50278Zm-15.0121,3.1473a9.62014,9.62014,0,0,1-2.5794-.375c-1.6463-2.1493-1.7145-3.7578-.2473-4.8402a.65762.65762,0,0,0,.2.0645,31.49433,31.49433,0,0,0,8.5368.0538,5.05232,5.05232,0,0,0,1.0014,4.6094c-.4885.0916-.9115.1618-1.2129.2037-.2033.0284-.4074.046-.6108.0713-.05939-.8638-1.40839-1.1693-1.601-.2061-.0246.1243-.03239.2477-.0517.372-.4202.0317-.8402.0659-1.2615.079a.744.744,0,0,0-.2277-.3517,3.59314,3.59314,0,0,1-1.2452-3.4371c.20371-1.0439-1.3966-1.4909-1.6014-.4416A5.33637,5.33637,0,0,0,27.21047,41.65008Zm-3.2449,1.65a.7711.7711,0,0,0,.4078-.2868,10.49752,10.49752,0,0,0,1.6172.3115.84207.84207,0,0,0-.0683.2442,7.83927,7.83927,0,0,0,1.2277,4.8233C25.20507,48.23588,24.13617,46.55078,23.96557,43.30008Zm6.57831.0176a7.8906,7.8906,0,0,0,1.75069,4.5854c-.7476.1227-1.4953.2426-2.2544.3139q-.46515.03345-.9304.0662l-.0023-.0044a6.28282,6.28282,0,0,1-1.5247-4.7098.70861.70861,0,0,0-.0176-.1351A27.48007,27.48007,0,0,0,30.54388,43.31768Zm1.63959-.1686.0267-.0031a33.74064,33.74064,0,0,0,5.1982-1.0905,7.01676,7.01676,0,0,0,1.5696,4.0372,30.84983,30.84983,0,0,1-3.1273,1.0499c-.5564.1548-1.1206.2636-1.6821.3892a.75461.75461,0,0,0-.0642-.0949A6.29744,6.29744,0,0,1,32.18347,43.14908Zm6.6817-3.2108c-.4206-.4166-1.226-.4213-1.3568.3108-.0067.0378-.0067.0753-.0128.1132-.5625.1598-1.1162.3074-1.6344.4297a.76168.76168,0,0,0-.218-.4108,3.44442,3.44442,0,0,1-.7658-3.878.75339.75339,0,0,0,.0442-.2416,30.60532,30.60532,0,0,0,4.3291-1.1571.81281.81281,0,0,0-.0409.176,5.75747,5.75747,0,0,0,1.4682,3.9801C40.08947,39.51328,39.47767,39.73318,38.86517,39.93828Zm4.4189-.2882a8.9168,8.9168,0,0,0,1.4101,2.7841,31.90533,31.90533,0,0,1-3.37329,2.5801c-.24621.1334-.503.251-.756.3743a5.41169,5.41169,0,0,1-1.53351-3.8456A23.01573,23.01573,0,0,0,43.28407,39.65008Zm-28.1803-14.5503c-.9608-.753-1.9196-1.5071-2.8385-2.3111-2.124-1.8591-2.9872-2.2534-2.0909-5.2071q.02685-4.0287,4.36151-2.401a9.23722,9.23722,0,0,1,2.56859.9145,29.338,29.338,0,0,1,4.9209,2.874.74264.74264,0,0,0,1.1534-.4564.70394.70394,0,0,0,.0797-.6625c-2.1449-6.3085-.4054-16.1733,8.0875-16.1827,7.2932-.0082,9.2746,9.6411,10.7868,15.2269a.83088.83088,0,0,0,1.601-.4415c-.0203-.0754-.0423-.1571-.0632-.2335a.7431.7431,0,0,0,.0625-.1375c1.1003-4.8297,3.95-9.9286,9.5841-9.7533,9.6425.3,6.627,10.5895,2.1034,14.83-3.32369,3.1162-11.2514,5.7463-12.5389,10.6081a.84059.84059,0,0,0-.1422.0415,28.86558,28.86558,0,0,1-17.7141,3.0902.818.818,0,0,0-.4706.0794.92527.92527,0,0,0-.2301-.1057C22.25817,30.68828,18.72737,27.941,15.10377,25.09978Zm35.7036,103.2966c-11.2983,1.8696-24.2324.8997-34.4097-4.7175C6.268,118.08738,1.268,106.99718,1.669,95.68268c.3828-10.8088,5.64491-20.8678,12.2811-29.1624,4.2246-5.2804,9.7266-9.6922,10.34281-16.7973,3.22909.9889,7.57029.0453,10.29869-.5574a35.93458,35.93458,0,0,0,5.9479-1.8547.94968.94968,0,0,0,.6855-.2919,20.80167,20.80167,0,0,0,4.3807-2.5878.88239.88239,0,0,0,.2064.2348c16.8807,12.9155,42.5435,16.9651,42.7641,42.9603C88.76637,110.02888,72.01037,124.889,50.80737,128.39638Z"/><path d="M67.89617,96.16578c-1.19929-7.1699-8.5814-10.1618-14.8054-11.6919a.779.779,0,0,0-.51689.0504q-.77177-5.8698-2.07231-11.6378a7.88068,7.88068,0,0,1,5.7119,1.1807.71425.71425,0,0,0,.9483-.1077.76779.76779,0,0,0,1.26211-.4152,13.65521,13.65521,0,0,1,2.06889-4.9669.68679.68679,0,0,0,.05311-.7328.83375.83375,0,0,0-.31561-.4848,15.18336,15.18336,0,0,0-12.1533-2.7057,21.41658,21.41658,0,0,1-.31009-4.4118.83912.83912,0,0,0-1.05111-.8007q-2.1546.51795-4.3094,1.0355c-.8963.2152-2.0574.3273-2.6206,1.1685a3.04193,3.04193,0,0,0-.1655,2.2558,21.72913,21.72913,0,0,0,1.1077,4.0834.83664.83664,0,0,0,.2443.3443c-6.4878,2.5939-10.3966,9.3263-8.1567,16.2465,2.2067,6.8183,9.2408,10.0223,15.9246,8.3987q1.45635,5.76675,2.3736,11.6398a7.618,7.618,0,0,1-9.4533-2.5564.81225.81225,0,0,0-.5102-.3443.63673.63673,0,0,0-.7811.0426,11.90429,11.90429,0,0,0-4.0942,5.5392c-.25909.7168.4767,1.1314,1.0537.9571a13.976,13.976,0,0,0,14.7794,3.7618c.2989,1.7696.8763,3.8422,2.1324,4.8976,1.528,1.2834,4.7618.0355,6.3537-.5183a.84676.84676,0,0,0,.57971-1.0212l-1.70881-6.1602C64.83127,107.16878,68.91137,102.23638,67.89617,96.16578Zm-9.3699,11.6334a.81833.81833,0,0,0-.8919,1.026q.8661,3.1227,1.7324,6.2456c-1.2463.4399-2.7895.9139-3.8294.3683-1.4222-.7453-1.781-3.2315-1.956-4.7267a.88044.88044,0,0,0-1.5798-.4254,12.34216,12.34216,0,0,1-13.5212-3.2317.806.806,0,0,0-.2324-.1672,9.97413,9.97413,0,0,1,2.5304-3.3206,9.308,9.308,0,0,0,10.8536,2.6446.91834.91834,0,0,0,1.2558-.9666A128.39488,128.39488,0,0,0,50.08,91.47528a.83152.83152,0,0,0-1.5223-.1629c-13.9769,3.6608-20.604-16.3293-6.8611-21.5029a.89381.89381,0,0,0,.351-1.4064.67267.67267,0,0,0,.2814-.8595,22.64136,22.64136,0,0,1-.7919-2.526c-.21919-.8997-.7915-2.1946.2335-2.6804a12.89844,12.89844,0,0,1,2.424-.5824l1.9054-.4581a23.50138,23.50138,0,0,0,.44291,4.2932.68725.68725,0,0,0,.65769.5956.77547.77547,0,0,0,.7179.178,13.54567,13.54567,0,0,1,10.7821,1.9679,14.96106,14.96106,0,0,0-1.7449,4.2466,9.5329,9.5329,0,0,0-6.8432-1.3037.828.828,0,0,0-1.5487.5548,124.90009,124.90009,0,0,1,2.475,13.6053.91606.91606,0,0,0,1.4838.5804.74437.74437,0,0,0,.1267.0602c4.6142,1.1344,9.6824,2.728,12.3307,7.0229C68.711,99.14888,64.53937,105.73768,58.52627,107.79918Z"/><path d="M47.80877,83.82968a41.03765,41.03765,0,0,0-3.371-10.5088.73855.73855,0,0,0-1.2476-.1479.80717.80717,0,0,0-.5051.0692c-3.4253,1.7054-6.6533,4.9976-5.5618,9.1524,1.2088,4.6003,6.0777,4.2581,9.748,3.2195a.77115.77115,0,0,0,.5628-.9094A.84594.84594,0,0,0,47.80877,83.82968Zm-9.1943-2.6108c-.2767-3.0615,2.197-5.1324,4.6696-6.4135a39.497,39.497,0,0,1,2.8845,9.278C43.20367,84.88508,38.99017,85.37018,38.61447,81.21888Z"/><path d="M61.51507,93.91038a6.877,6.877,0,0,0-8.23-3.804.84361.84361,0,0,0,.076,1.625c.00881.0239.0057.0466.0169.0706a50.85835,50.85835,0,0,1,3.3138,9.7395.70821.70821,0,0,0,.4625.5361.809.809,0,0,0,1.0794.2831A6.87476,6.87476,0,0,0,61.51507,93.91038Zm-3.3898,6.5449a52.94354,52.94354,0,0,0-3.0723-8.93,5.00056,5.00056,0,0,1,4.9172,3.0358A5.11348,5.11348,0,0,1,58.12527,100.45528Z"/></g></g></svg>