<svg xmlns="http://www.w3.org/2000/svg" viewBox="0 0 100.32004 78.66068"><title>Asset 14</title><g id="Layer_2" data-name="Layer 2"><g id="Objects"><path d="M93.13322,43.476a110.37855,110.37855,0,0,0-9.68511-22.7553.74359.74359,0,0,0-.9531-.3402.69932.69932,0,0,0-1.0493-.2284,4.64834,4.64834,0,0,1-6.8564-1.8605.87217.87217,0,0,0-.8003-.5486.77785.77785,0,0,0-.4034.0193q-30.46108,9.6288-60.9228,19.2573a.7834.7834,0,0,0-.5662.6919.80287.80287,0,0,0-.576,1.2101,5.61287,5.61287,0,0,1-3.6767,8.601.74362.74362,0,0,0-.5331,1.0369.8998.8998,0,0,0-.4723,1.178,98.01152,98.01152,0,0,1,6.00271,18.8226.775.775,0,0,0,1.26079.4223.7021.7021,0,0,0,.772.1932,6.16644,6.16644,0,0,1,7.5354,3.3872.65687.65687,0,0,0,.5331.4162.78232.78232,0,0,0,.9585.5152q30.92925-7.95255,61.2998-17.8392a.81619.81619,0,0,0,.15741-.0888.67871.67871,0,0,0,.59119-.7686,9.75733,9.75733,0,0,1,6.4442-10.078.819.819,0,0,0,.3595-.2534A.76419.76419,0,0,0,93.13322,43.476ZM49.511,28.09968c17.4976,3.5672,18.1348,32.0698-.5719,34.13-17.9125,1.9729-20.9753-25.6452-7.1233-32.6503a.77918.77918,0,0,0,.2033-.1614q3.45975-1.09365,6.9186-2.1869A.70424.70424,0,0,0,49.511,28.09968Zm34.5536,26.1107q-29.92845,9.72675-60.4069,17.5767c-.0078-.0213-.005-.0412-.01449-.0629a7.80008,7.80008,0,0,0-9.41081-4.1496.80727.80727,0,0,0-.1057.0591,100.083,100.083,0,0,0-5.9713-18.53,7.26555,7.26555,0,0,0,4.8649-10.5196q12.016-3.798,24.0316-7.5962c-10.5749,10.4844-5.7479,34.9299,12.02431,33.0093,20.21749-2.1848,20.07089-32.7603,1.597-37.3147q11.35273-3.5883,22.70559-7.177a6.295,6.295,0,0,0,8.7088,2.1875,108.4153,108.4153,0,0,1,9.25061,21.6084A11.39552,11.39552,0,0,0,84.06461,54.21038Z"/><path d="M55.29851,51.46148a7.2861,7.2861,0,0,0,1.70271-8.9017,6.25226,6.25226,0,0,0-6.53111-3.0159q-1.0449-2.48205-2.1138-4.9537a11.76578,11.76578,0,0,1,1.69291-.1746.83092.83092,0,0,0,0-1.6608,12.8867,12.8867,0,0,0-2.37031.2979c-.5348-1.2192-1.0652-2.4402-1.6104-3.6553-.4365-.9734-1.8679-.1298-1.4338.8378.4878,1.0878.96151,2.1807,1.4409,3.2716a11.651,11.651,0,0,0-1.67439.7399c-.33681-1.0467-.68511-2.0896-1.01961-3.1372-.3233-1.0142-1.927-.5807-1.601.4412.3865,1.2115.7889,2.4176,1.1787,3.6277a10.82628,10.82628,0,0,0-1.8506,1.8409c-1.2176,1.5453-3.0487,4.48-.8379,5.9736,1.57741,1.0659,3.4142.698,5.2358.0254q1.51725,4.60335,3.0801,9.1925a31.66834,31.66834,0,0,1-5.1159-.2449c-1.0621-.1092-1.0544,1.5523,0,1.6604a32.03407,32.03407,0,0,0,5.6581.1933c.4068,1.1973.801,2.3983,1.2115,3.5939.3446,1.005,1.9493.5733,1.601-.4412-.3851-1.123-.7551-2.2507-1.1371-3.3744a10.0134,10.0134,0,0,0,3.1124-1.1364c.1534.3959.3132.7898.4659,1.1864.3797.9872,1.9858.5585,1.601-.4412C55.75931,52.623,55.52522,52.04388,55.29851,51.46148Zm-.7432-1.8919q-1.65913-4.2066-3.3879-8.3831C56.20122,40.94088,57.16881,46.30368,54.55531,49.56958Zm-12.0794-7.6841c-2.5469-.977-.4422-3.5922,1.0449-4.9794q.75915,2.3433,1.5223,4.6848A3.91137,3.91137,0,0,1,42.47591,41.88548Zm2.448-6.0307a9.38081,9.38081,0,0,1,1.8155-.8409q1.06365,2.4435,2.0959,4.9003c-.6206.225-1.41309.6223-2.2608,1.021Q45.742,38.39733,44.92391,35.85478Zm7.4081,15.4834a9.03334,9.03334,0,0,1-2.0646.6665q-1.6236-4.79895-3.2175-9.6071a25.1637,25.1637,0,0,1,2.4422-.9358q1.93935,4.6455,3.7713,9.3362A6.27045,6.27045,0,0,1,52.332,51.33818Z"/><path d="M97.21191,43.81078c3.08-1.004,3.4902-2.7811,2.85031-5.8946-1.56691-7.6212-5.06991-15.4151-7.63071-22.7681-1.2372-3.5527-3.4392-13.0885-7.2784-14.8078-3.5557-1.5922-10.0381,2.8497-13.2925,4.119Q48.76316,13.46633,25.26481,21.397q-6.3486,2.143-12.72359,4.2064c-2.048.6629-6.21591.9804-7.69391,2.6068-2.06419,2.2719-.43379,4.552,1.0534,6.9061a13.85558,13.85558,0,0,0-3.123,1.5912c-2.3986,1.7067-3.3919,4.0385-2.3912,6.3729a.68757.68757,0,0,0-.0108.5493q4.5933,12.11715,9.1865,24.2337c1.13369,2.9906,2.08979,9.449,5.83029,10.6389,2.2831.7263,6.1453-1.2494,8.32971-1.8017q6.34873-1.6059,12.69829-3.2118c8.229-2.0835,16.4571-4.1767,24.6209-6.5064,7.7425-2.2091,15.4347-4.6193,22.98-7.4358,3.4753-1.2977,10.96681-2.7118,12.9195-6.3959,1.2081-2.2791.7385-5.8142-.227-9.3517A.72851.72851,0,0,0,97.21191,43.81078Zm-6.5328,11.3507c-4.1871,3.0915-11.7118,4.4986-16.6962,6.1378-5.6402,1.8547-11.3381,3.5314-17.0594,5.1162-5.7277,1.5861-11.4838,3.0689-17.2432,4.5341-5.60709,1.4263-11.9486,4.1503-17.6736,4.4719q-3.23055,1.7697-5.7767-1.254a4.79574,4.79574,0,0,1-4.1479-4.3223c-1.6574-2.8263-2.5108-6.6236-3.6747-9.6932q-2.9715-7.83855-5.94219-15.676a.85289.85289,0,0,0-.0115-1.0777c-2.4361-2.9608,4.31859-6.2648,10.92059-8.6753a.694.694,0,0,0,.8338-.2007c.0388-.0439.0696-.0932.1078-.1378,4.49931-1.5912,8.7185-2.7358,9.64931-3.0311l18.581-5.8946q9.3855-2.97765,18.77189-5.9553c6.5888-2.0906,14.23511-5.8223,21.283-5.7575a.83148.83148,0,0,0,.0764.2433,124.08552,124.08552,0,0,1,8.2594,18.1003C93.35071,38.84968,98.30551,49.53068,90.67911,55.16148Zm5.6703-12.6264c-.6399-2.1081-1.4061-4.1614-2.0517-5.8959.01351-.0216.0324-.0317.0449-.0554,1.8463-3.5804-.38-6.7942-1.7919-10.2256a135.399,135.399,0,0,1-5.7064-17.2523.73367.73367,0,0,0-.6314-.5706.86981.86981,0,0,0-1.1662-.0521,3.75593,3.75593,0,0,1-5.9892-1.604.88065.88065,0,0,0-1.2685-.4419.76333.76333,0,0,0-.7166.0341c-18.3807,10.2463-40.6374,14.9337-60.60519,21.3219-1.01381.3243-.58041,1.928.44159,1.6013,20.0952-6.429,42.3025-11.1138,60.8406-21.4036a5.37006,5.37006,0,0,0,7.6679,2.1959c1.0696,4.0213,2.2737,7.9922,3.7054,11.903.998,2.7254,4.1514,8.1257,4.1672,11.7541a124.89541,124.89541,0,0,0-9.1283-20.5969.85936.85936,0,0,0-.75439-1.149c-8.98851-.4666-19.04251,4.6973-27.53641,7.3922q-14.368,4.5582-28.7357,9.1165-5.7021,1.8087-11.404,3.6179a9.46431,9.46431,0,0,0,.7479-2.1473c.2223-1.0422-1.378-1.4875-1.601-.4412a8.06208,8.06208,0,0,1-1.5544,3.3375c-1.8172.5378-3.8503.9868-5.8057,1.5878-3.65339-6.0658,7.6456-8.0554,11.8334-9.4395q6.99825-2.31225,13.9635-4.7236,14.56411-5.0382,28.9796-10.4932,6.894-2.60835,13.75-5.3132c1.4631-.577,4.6101-2.6642,6.226-2.4767,4.2973.499,5.7209,5.8139,6.9746,9.051,1.3696,3.5352,12.04521,29.5699,7.5257,31.0435A.78779.78779,0,0,0,96.34941,42.53508Z"/></g></g></svg>